<svg width="74" height="92" viewBox="0 0 74 92" fill="none" xmlns="http://www.w3.org/2000/svg">
<g clip-path="url(#clip0_170_144)">
<path d="M21.359 4.68936C21.2459 4.55001 21.1681 4.4362 21.1204 4.36747C21.0748 4.30081 21.0434 4.25734 21.0937 4.34119C21.1305 4.39569 21.1554 4.45124 21.3327 4.66035C21.437 4.77782 21.5845 4.93889 21.859 5.13712C21.9279 5.1863 22.0051 5.23728 22.0925 5.28856C22.1806 5.33957 22.2695 5.38976 22.4337 5.46161C22.7356 5.59312 23.1346 5.70417 23.5778 5.71804C24.0195 5.73507 24.4873 5.64478 24.8644 5.48951C25.0789 5.40038 25.1591 5.35332 25.2699 5.29046C25.374 5.22968 25.4682 5.16669 25.5532 5.10389C25.8932 4.85024 26.0858 4.61459 26.219 4.43418C26.3672 4.22456 26.3804 4.18688 26.4256 4.10891C26.4636 4.03941 26.4922 3.9809 26.5152 3.93083C26.6098 3.71692 26.6061 3.70115 26.6215 3.65655C26.632 3.62035 26.6317 3.61504 26.6297 3.6167C26.6257 3.61843 26.6089 3.66575 26.5938 3.70374C26.5228 3.90143 26.4216 4.15815 26.3167 4.3949C26.2516 4.54322 26.1 4.43073 26.0486 4.52656C25.9486 4.71405 25.994 4.93673 25.883 5.11965C25.8448 5.18387 25.5957 5.05243 25.5616 5.12134C25.4672 5.32121 25.424 5.50023 25.3865 5.69299C25.3485 5.88833 25.3163 6.0963 25.2564 6.28108C24.6408 8.25594 24.221 10.1734 23.7576 12.1936C23.6032 12.8715 23.2303 13.622 23.2167 14.3405C23.216 14.4205 23.4556 14.4134 23.4722 14.4314C23.7252 14.7147 23.2704 14.5577 23.1822 14.7014C22.833 15.273 22.6886 15.9952 22.6802 16.5855C22.6759 16.8457 23.1796 16.6692 22.8776 16.8818C22.857 16.8968 22.622 16.7898 22.5838 16.8556C22.4978 17.0042 22.4896 17.3185 22.4484 17.4424C22.3994 17.587 22.3785 17.6597 22.36 17.7467C22.3483 17.8018 22.3376 17.8627 22.3212 17.9522C22.2618 18.2643 22.0766 18.6108 22.0764 18.9471C22.0771 19.019 22.3451 18.9701 22.369 19.0886C22.3928 19.2074 22.3213 19.4957 22.245 19.5829C22.1688 19.6704 21.9778 19.5946 21.9293 19.6041C21.5216 19.679 21.9916 20.1258 21.9973 20.171C22.0807 21.0252 21.6627 21.6389 21.5298 22.4085C21.4319 22.9789 21.4255 23.6047 21.3151 24.1538C21.1851 24.7943 20.9509 25.3244 20.8629 25.9601C20.8534 26.0266 21.1634 26.0016 21.1524 26.083C21.0369 26.9379 20.8507 27.7994 20.4967 28.627C20.4609 28.7102 20.2208 28.5518 20.1695 28.632C19.8617 29.1213 19.1998 29.8597 20.2752 30.3788C20.1672 30.7271 20.045 31.1457 19.7583 31.43C19.5743 31.6103 19.3271 31.3589 19.4024 31.6337C19.4191 31.6956 19.6805 31.6662 19.6868 31.7555C19.7134 32.1294 19.5623 32.5066 19.6258 32.8894C19.6394 32.9668 19.8652 32.987 19.9015 33.0148C20.1945 33.2463 19.6075 33.4346 19.5574 33.4892C19.182 33.9105 19.2321 34.2877 19.1463 34.7247C19.1262 34.8264 19.4464 34.7597 19.4378 34.8593C19.3877 35.3843 19.2672 35.9086 19.0446 36.3888C18.9943 36.496 18.7584 36.3469 18.7214 36.3957C18.5612 36.6116 19.0322 36.7499 18.8882 36.957C18.8585 37.0008 18.6455 36.935 18.62 36.9394C18.2203 37.0081 18.7314 37.2207 18.7369 37.2575C18.8187 37.7288 18.2126 37.9156 18.2159 38.3555C18.2169 38.4082 18.5128 38.3421 18.4987 38.4873C18.4051 39.4611 18.1526 40.4592 17.7689 41.3698C17.7096 41.5115 17.5205 41.3705 17.4934 41.3754C17.0682 41.4581 17.5862 41.6482 17.5981 41.6998C17.6778 42.1058 17.1694 42.3816 17.7629 42.7483C17.2698 44.3185 17.3662 45.976 16.5423 47.4821C16.5325 47.5014 16.2743 47.4232 16.2558 47.4617C16.0305 47.9274 16.4554 47.8996 16.9063 48.3041C17.0199 48.4035 16.3758 48.5537 16.328 48.5688C16.152 48.6226 15.7719 48.4792 15.736 48.5008C15.4529 48.6825 16.7578 48.8479 16.7121 49.1471C16.7085 49.1561 16.4754 49.0798 16.4477 49.1013C16.361 49.1679 16.4441 49.2604 16.3499 49.3247C16.1323 49.4717 15.491 49.4387 15.8185 49.7572C15.8611 49.798 16.6062 49.8592 16.5311 50.1185C16.5006 50.2212 16.4419 50.6951 16.3738 50.8225C16.306 50.949 16.0821 50.8213 16.0704 50.8293C15.7026 51.1389 15.593 50.9813 15.1012 51.0884C14.6113 51.1952 15.7243 51.312 15.837 51.4024C15.9493 51.4927 15.6513 51.7141 15.5516 51.7652C15.4518 51.8162 15.3126 51.7134 15.2531 51.7631C14.8632 52.0942 15.7773 52.0117 15.9343 52.1633C16.3052 52.5277 15.4536 52.6201 15.3338 52.8777C15.3015 52.9468 15.497 52.9152 15.5051 52.9821C15.5345 53.2473 15.256 53.3648 15.4479 53.6949C15.4789 53.7506 15.9383 54.0567 15.5549 54.1533C15.4996 54.1671 15.3038 54.077 15.2425 54.1781C15.1506 54.3288 15.0639 54.6151 15.1071 54.8015C15.1391 54.939 15.4975 54.8378 15.3694 54.987C15.3121 55.0535 15.1343 54.8897 15.0433 55.017C14.9525 55.1437 14.911 55.498 14.9001 55.6244C14.8888 55.7548 15.1545 55.7203 15.1703 55.7331C15.26 55.8102 15.3481 56.0774 15.3447 56.0998C15.2161 57.2397 14.6426 58.2091 14.6363 59.3216C14.6356 59.4081 14.9131 59.3884 14.9158 59.4019C14.9891 59.7093 14.3031 59.3809 14.0351 59.5529C14.5867 59.5981 14.4711 59.7051 14.5029 59.9217C14.5186 60.0263 14.7381 60.0004 14.7585 60.0125C15.0604 60.2055 14.6303 60.2538 14.5415 60.2692C14.215 60.3264 14.5702 60.4855 14.3517 60.5255C14.1348 60.5657 13.8481 60.367 13.8246 60.5708C14.0133 60.6517 14.5451 60.5769 14.6082 60.7355C14.8484 61.3259 14.3011 62.3606 14.1997 62.8064C14.0985 63.25 14.1151 63.4031 14.0091 63.6604C13.8172 64.128 14.2208 64.0002 14.3551 64.3267C14.4891 64.6557 13.5728 64.3842 13.3659 64.4014C13.1901 64.4161 13.3089 64.4724 13.2762 64.5126C13.2704 64.5203 13.2599 64.5267 13.2423 64.5324C13.1247 64.572 13.0033 64.4372 12.9452 64.5586C12.8871 64.6806 13.1997 65.071 13.4042 65.1425C13.8374 65.2946 14.3253 65.2032 14.1176 65.5112C14.1053 65.5284 13.8674 65.4345 13.833 65.5035C13.5674 66.0555 13.4802 66.6216 13.2333 67.1895C13.1992 67.2656 12.9352 67.1582 12.9123 67.2017C12.6729 67.6566 13.1573 67.5473 13.6346 67.877C12.9605 67.7256 12.5239 67.8144 12.4718 68.167C12.4402 68.3798 12.7438 68.3779 12.9338 68.5523C12.9912 68.604 12.7653 68.7331 12.9015 68.7804C13.3464 68.9363 13.8788 68.8609 13.6232 69.2097C13.6112 69.225 13.3679 69.1382 13.3448 69.1931C13.1951 69.5464 13.6679 69.6563 13.672 70.053C13.677 70.3521 13.305 70.8862 13.2085 71.228C12.4434 71.113 12.5723 71.4688 13.0817 71.6758C13.0285 71.8962 13.024 72.1429 12.9184 72.3607C12.8825 72.4348 12.668 72.3524 12.6427 72.3588C12.2455 72.454 12.7449 72.6278 12.7579 72.6802C12.8764 73.2475 12.4277 73.6021 12.731 74.1854C12.742 74.2058 13.2694 74.3138 12.8611 74.393C12.8331 74.3981 12.6159 74.1937 12.562 74.4314C12.5073 74.6735 12.1599 75.0549 12.3538 75.4434C12.4009 75.5341 12.8015 75.805 12.44 75.9174C12.391 75.9321 12.2421 75.8855 12.1526 75.904C11.8672 75.9647 12.396 76.1008 11.922 76.1493C11.4479 76.1985 11.0705 76.3844 11.3325 76.7786C11.34 76.7908 11.7533 76.9364 11.7304 77.0412C11.6934 77.2092 11.5684 77.4322 11.5448 77.6034C11.5336 77.6859 11.8059 77.6743 11.8086 77.689C11.8681 78.2845 11.5706 78.6448 11.3723 79.2345C11.335 79.3457 11.6436 79.7252 11.3251 79.89C10.9757 80.0747 9.72144 79.6102 9.94057 80.2127C10.0278 80.4554 11.6264 80.9985 10.7114 81.2445C10.7936 82.0565 10.2427 82.666 10.4096 83.4882C10.417 83.5253 10.856 83.7138 10.8359 83.7917C10.8051 83.908 10.5804 83.9316 10.5513 84.0147C10.4205 84.3808 10.5511 84.7072 10.4571 85.0669C10.423 85.1973 10.2102 85.1117 10.17 85.2637C10.1304 85.4126 10.4024 85.5704 10.2224 85.7601C10.0852 85.9052 9.46448 85.9384 9.35444 86.146C9.93929 86.2623 9.8991 86.4124 10.007 86.6916C10.0281 86.7453 10.2417 86.7325 10.2622 86.7594C10.3506 86.8692 10.1631 86.9363 10.2606 87.0475C10.2839 87.075 10.4838 87.1139 10.5142 87.1382C10.78 87.3478 10.2835 87.51 10.1961 87.5433C9.86657 87.6557 10.1125 87.7803 9.97215 87.8812C9.83002 87.9918 9.7208 87.7662 9.62058 87.9068C9.4144 88.1924 9.3739 88.5847 9.30564 88.9047C9.28037 89.0287 9.5633 88.9929 9.56591 89.0121C9.5869 89.2798 9.25588 89.4919 9.76476 89.7302C8.35512 89.6733 9.87033 89.9116 9.53855 90.2292C9.51188 90.2547 8.85073 90.1991 8.77252 90.065C8.6929 89.941 8.92702 89.787 8.80301 89.612C8.77347 89.5724 8.20112 89.2414 8.16865 89.2095C7.91973 88.9303 8.90049 89.0683 8.95592 89.067C9.55647 89.0402 8.94763 88.6568 8.91497 88.5802C8.76397 88.2352 8.95012 87.9994 8.85194 87.7049C8.78783 87.5183 8.15353 87.3848 8.19819 87.2551C8.34676 86.8207 9.26449 86.8315 8.56997 86.2795C8.42223 86.1601 7.70883 86.123 8.31672 85.8988C8.35614 85.879 8.89851 85.7474 8.60691 85.5506C8.5701 85.5263 8.36698 85.4892 8.3541 85.4637C8.27117 85.2937 8.45413 85.2069 8.40469 85.0382C8.35633 84.8638 8.27659 84.6446 8.38045 84.4619C8.44245 84.3533 8.8455 84.283 8.94801 84.2447C9.24203 84.1405 8.83382 83.8952 9.17454 83.8537C9.51692 83.8128 9.97738 84.0888 10.2318 83.8728C9.7053 83.7713 9.16682 83.655 8.63817 83.547C8.75249 83.004 9.01544 82.498 9.08861 81.9217C9.0964 81.8552 8.80065 81.875 8.80167 81.8016C8.80729 81.4923 9.05538 81.2547 9.02992 80.9065C9.00619 80.6548 8.74936 80.3347 8.71663 80.0568C9.34978 79.9865 9.20503 79.5763 9.30545 79.3035C9.3404 79.2077 9.50116 79.2403 9.56527 79.1777C9.80335 78.94 9.24784 78.9802 9.17531 78.8933C8.86725 78.5107 10.081 78.6934 10.1089 78.3203C10.1107 78.3011 9.50167 77.9606 9.46665 77.921C9.23706 77.6686 9.69707 77.9216 9.76546 77.7964C9.89126 77.5625 10.0703 77.4271 9.92328 77.1224C9.87958 77.0329 9.50633 76.7767 9.84258 76.6643C9.88666 76.6489 10.0986 76.6937 10.1138 76.6783C10.3693 76.403 9.69962 76.286 9.49816 76.0797C9.29613 75.8772 9.79971 75.6829 9.94159 75.6484C10.3088 75.5583 10.0731 75.7794 10.1059 75.7915C10.4963 75.9423 10.4558 75.7392 10.5123 75.5941C11.1745 75.6721 11.1664 75.4548 10.5684 75.4434C10.503 75.4427 10.5469 75.5686 10.5123 75.5941C9.88558 75.366 9.83729 75.1226 10.4803 74.9514C10.7815 74.8722 11.0955 75.0313 11.0268 74.6601C10.9961 74.4908 10.5331 74.4863 10.4304 74.3247C10.1958 73.9586 10.6844 73.5746 10.6667 73.2264C10.66 73.1018 10.3944 73.1836 10.3813 73.0974C10.3455 72.868 10.5603 72.6987 10.4972 72.4591C10.4911 72.4374 10.2237 72.4502 10.2305 72.3792C10.2778 71.8336 10.5092 71.4017 10.5914 70.8497C10.6307 70.5865 10.5576 70.0613 10.6233 69.8C10.737 69.3369 11.1976 68.7932 11.1634 68.3568C11.142 68.0731 10.8724 68.1044 10.7105 67.9658C10.3959 67.7026 11.065 67.3959 11.1676 67.3557C11.1709 67.3544 11.2013 67.5927 11.3516 67.4885C11.64 67.4547 11.1685 67.3582 11.1676 67.3557C11.2338 67.3301 11.3556 66.8733 11.3183 66.7724C11.2979 66.718 11.0473 66.7129 11.0413 66.6855C10.9062 66.0146 10.9202 65.4281 11.1202 64.8014C11.1267 64.7905 11.4007 64.8442 11.4125 64.8186C11.5101 64.618 11.4525 64.4391 11.3552 64.2609C11.2818 64.1254 11.1858 63.9913 11.1167 63.8484C10.9563 63.5163 11.055 63.2857 11.5526 63.1708C11.5228 62.9361 11.7749 62.6425 11.9264 62.4763C12.078 62.3099 11.5436 62.2138 11.5353 62.1946C11.265 61.623 11.6127 61.3645 11.7314 60.8424C11.7885 60.5964 11.7776 60.0877 11.7571 59.7972C11.7395 59.5712 11.8832 59.4571 11.8298 59.2466C11.8227 59.2182 11.5797 59.2128 11.5716 59.2033C11.3156 58.9421 11.886 59.1287 11.9967 59.0972C12.3992 58.9836 12.6154 58.909 12.4749 58.6051C12.4423 58.5387 11.6275 58.2231 11.5949 58.0948C11.5543 57.9276 11.8479 58.0289 11.7975 57.8535C11.7935 57.8386 11.6068 57.8157 11.6291 57.7151C11.7305 57.2429 11.9055 56.7778 11.9577 56.2682C11.9653 56.2006 11.6579 56.2455 11.664 56.1472C11.6933 55.6829 11.7715 55.2075 11.973 54.7815C12.0235 54.6765 12.2204 54.7749 12.2852 54.7598C12.6774 54.6662 12.1672 54.3833 12.1618 54.348C12.0166 53.5127 12.5957 52.9543 12.4822 52.1106C12.4746 52.0665 11.9474 51.6367 12.4662 51.5534C12.5008 51.5476 13.0305 51.4696 12.7038 51.2836C12.6834 51.272 12.4083 51.3279 12.4594 51.1665C12.5105 51.0051 12.3756 50.715 12.6957 50.5353C12.7963 50.4808 13.3282 50.382 12.9577 50.1055C12.9316 50.087 12.0707 49.616 12.7172 49.5944C12.8236 49.5912 13.4859 49.7119 13.1834 49.4067C13.1246 49.3483 12.9628 49.4132 12.8896 49.2719C12.776 49.0586 12.9952 48.818 12.7364 48.5291C12.6906 48.4785 12.267 48.2278 12.6319 48.1372C12.6891 48.1231 12.9045 48.2004 12.9411 48.1284C13.1156 47.7903 13.0273 47.382 13.2389 47.0382C13.3133 46.9166 13.6616 47.0398 13.7791 46.92C13.8967 46.799 14.0314 46.5476 13.8906 46.3761C13.7496 46.2065 13.153 46.2715 13.1416 46.0495C13.0912 45.0905 13.5754 44.2322 13.7786 43.3142C13.8087 43.1786 13.5855 43.2578 13.6152 43.0556C13.7234 42.3115 13.7509 40.9925 14.2959 40.4246C14.7323 39.9694 14.8847 40.6638 15.094 40.2946C15.1943 40.1164 14.567 39.7954 14.5541 39.7458C14.4201 39.2603 14.7682 39.0004 14.7488 38.582C14.7448 38.4954 14.4618 38.5298 14.4613 38.4566C14.4572 38.2067 14.6224 37.971 14.641 37.7376C14.6489 37.6324 14.4403 37.6151 14.473 37.5227C14.5489 37.3013 14.6709 37.1147 14.9028 36.9256C14.9239 36.9084 15.1547 37.0911 15.1943 36.9233C15.2579 36.6501 15.5069 36.3509 15.3674 36.0003C15.3252 35.8963 14.8572 35.8088 15.2168 35.6653C15.292 35.6355 15.8453 35.7891 15.4007 35.4687C15.3269 35.4156 14.7407 34.9088 15.198 34.792C15.3183 34.7613 15.8021 34.7144 15.7499 34.5887C15.7411 34.5713 15.4784 34.5872 15.4706 34.4894C15.4483 34.1415 15.5347 33.8148 15.5167 33.462C15.5113 33.3682 15.2268 33.4553 15.2271 33.3168C15.2286 32.9307 15.3755 32.4944 15.522 32.1477C15.5764 32.0204 15.7757 32.1512 15.8009 32.1457C16.2107 32.059 15.7119 31.8734 15.6913 31.816C15.5698 31.458 15.8537 31.2694 15.8428 30.9615C15.8404 30.8771 15.5843 30.8904 15.5653 30.8703C15.3814 30.6636 15.8002 30.8685 15.868 30.7706C16.0598 30.4949 16.0998 30.1582 16.1215 29.8563C16.1293 29.7443 15.8222 29.8166 15.8324 29.7166C15.8888 29.1196 16.025 28.5157 16.2841 27.9721C16.3335 27.8691 16.5409 27.9766 16.595 27.9629C16.9736 27.87 16.5362 27.5538 16.5002 27.4922C16.3345 27.2166 16.544 27.1648 16.5449 26.9496C16.5472 25.8902 16.9005 24.6411 17.1475 23.6997C17.4727 22.4463 17.8512 21.5092 18.0036 20.3044C18.0136 20.228 17.7081 20.2538 17.7129 20.1873C17.79 19.321 18.047 18.5102 18.1088 17.6396C18.1145 17.5677 17.8199 17.6222 17.8197 17.5053C17.8181 17.3442 17.8472 17.1583 17.9056 16.9851C17.9346 16.8984 17.9705 16.8156 18.0132 16.7413C18.0758 16.6313 18.2869 16.8292 18.3451 16.7177C18.481 16.4584 18.5499 16.1731 18.5515 15.8942C18.5516 15.7757 18.2385 15.9011 18.2607 15.7509C18.4029 14.7436 18.5264 13.7177 19.0732 12.7142C19.1105 12.6464 19.6975 12.6805 19.6124 12.5111C19.4544 12.4727 19.2661 12.4416 19.096 12.4078C19.2577 10.885 19.7005 9.466 19.9846 7.9526C19.9962 7.89082 19.672 7.95215 19.6943 7.82335C19.8222 7.08416 19.849 6.40093 20.2758 5.71616C20.3178 5.64772 20.8493 5.77307 20.8034 5.54835C20.795 5.50711 20.7746 5.19105 20.6744 5.07397C20.6588 5.05931 20.3977 5.07766 20.4086 4.96888C20.4683 4.38548 20.6387 3.72449 20.9069 3.13159C20.9499 3.04024 21.1971 3.19199 21.2299 3.12835C21.3563 2.85506 21.3777 2.63234 21.4777 2.23205C21.487 2.19568 21.5101 2.11226 21.5324 2.04325C21.5594 1.96319 21.57 1.92037 21.6475 1.74134C21.6835 1.66141 21.7283 1.56935 21.7984 1.45479C21.8946 1.30963 22.0886 0.966813 22.6198 0.660792C22.8756 0.489615 23.5941 0.303092 24.0782 0.422658C24.3255 0.468014 24.5491 0.560649 24.6905 0.636381C24.8121 0.700767 24.9103 0.766879 24.9915 0.828532C25.3108 1.08025 25.4017 1.24033 25.4547 1.30805C25.5698 1.47624 25.5823 1.51921 25.5941 1.54862C25.602 1.57429 25.5909 1.5695 25.5634 1.54542C25.506 1.50078 25.393 1.35353 25.0709 1.17155C24.613 0.903818 24.0283 0.961465 23.8748 1.06948C23.675 1.17436 23.6207 1.29841 23.6095 1.40595C23.61 1.61574 23.6558 1.85762 23.7613 2.0663C23.779 2.1363 23.8323 2.10317 24.0408 2.27077C24.5619 2.7013 25.017 3.29582 25.5737 3.75367C25.7021 3.85377 25.893 3.35909 25.9916 3.82871C25.9988 3.86332 25.8472 4.2225 25.7661 4.45026C25.7346 4.59009 26.0789 4.66243 25.9501 4.90998C25.8937 5.02452 25.7049 5.12785 25.461 5.22494C25.2412 5.30483 24.8481 5.47844 24.2228 5.57807C23.4982 5.65303 23.2479 5.65035 22.8374 5.60059C22.4591 5.56088 21.7644 5.21401 21.359 4.68936ZM12.6078 61.703C12.8893 61.563 11.9471 61.4106 12.1482 61.6297C12.159 61.6405 12.594 61.7103 12.6078 61.703ZM9.72514 82.6136C10.178 82.4615 9.59475 82.1996 9.24707 82.3057C8.90004 82.4104 9.58792 82.6596 9.72514 82.6136ZM9.62001 84.9896C9.99416 84.7839 8.67026 84.5022 8.88837 84.8337C8.90068 84.8529 9.59826 85.0018 9.62001 84.9896ZM24.1803 1.90154C24.1835 1.90705 24.2605 1.97113 24.3105 2.03404C24.3609 2.09602 24.3796 2.12964 24.4021 2.16571C24.4407 2.23103 24.451 2.2501 24.4586 2.25001C24.6004 2.19184 24.6653 2.13882 24.6114 2.04489C24.5759 1.98992 24.5224 1.92446 24.3549 1.82007C24.2791 1.77661 24.1943 1.75118 24.1582 1.76371C24.1195 1.77531 24.1398 1.8228 24.1803 1.90154ZM9.52349 87.3522C9.72048 87.2954 9.55437 87.0353 9.31246 87.0903C9.1184 87.1318 9.28006 87.4148 9.52349 87.3522ZM14.872 52.8174C14.8864 52.8167 14.9137 52.719 14.8339 52.7094C14.5768 52.6785 14.6289 52.8278 14.872 52.8174ZM8.91331 91.3427C8.99949 90.7102 10.1577 90.5333 9.97176 91.1089C9.93968 91.2169 9.63723 90.8419 9.52464 90.9722C9.3182 91.2303 10.0104 91.4264 9.63334 91.6769C9.56317 91.7312 8.90425 91.3843 8.91178 91.3415C8.91229 91.3421 8.9128 91.3427 8.91331 91.3427ZM13.7571 61.7545C13.77 61.7526 13.8005 61.6147 13.7885 61.6098C13.4984 61.494 13.4368 61.7718 13.7571 61.7545ZM16.3428 47.0736C16.3705 47.0707 16.4461 46.7557 16.4235 46.7398C15.9611 46.4943 15.8063 47.1342 16.3428 47.0736ZM13.1873 71.2305C13.4677 71.4247 13.4778 71.61 13.0823 71.6752C13.1233 71.5295 13.1474 71.3794 13.1873 71.2305Z" fill="white"/>
<path d="M3.08358 31.1351C3.96412 30.3317 5.25701 29.4492 6.27684 28.8374C6.5958 28.6454 6.547 28.8936 6.77174 28.7677C7.21096 28.5217 7.53732 28.177 7.98075 27.9488C8.1283 27.8738 8.12262 28.2104 8.27356 28.127C9.09961 27.6689 9.77933 27.095 10.5864 26.5926C14.5627 24.121 18.4496 21.695 22.5542 19.3626C23.9004 18.5972 25.6659 17.848 27.0105 16.9715C27.1688 16.868 26.9558 16.7177 26.9776 16.6832C27.3235 16.1492 27.3918 16.6555 27.7404 16.5339C29.1365 16.0436 30.5525 15.3104 31.7659 14.5871C32.2746 14.2831 31.5359 14.1347 32.1833 14.1002C32.2283 14.0973 32.2063 14.3886 32.3644 14.3384C32.7285 14.2209 33.3367 13.8688 33.5979 13.7634C34.1168 13.5539 34.2018 13.5102 34.6715 13.2893C35.3237 12.9858 36.1362 12.7476 36.8321 12.3791C36.9773 12.3012 36.6753 12.154 36.8977 12.0088C37.1121 11.8664 37.7791 11.6051 38.0168 11.5728C38.2562 11.5389 38.2405 11.7636 38.2962 11.7904C38.7431 12.0254 39.3176 11.2179 39.4028 11.1724C41.113 10.2864 42.7621 10.0187 44.7141 9.73866C44.8178 9.72544 44.9207 9.71356 45.0226 9.70308C46.5252 9.6542 47.7456 9.15561 49.6778 10.4953C50.9846 11.6627 50.5281 13.3375 50.2552 13.9635C50.1722 14.1717 50.0728 14.3855 49.9699 14.5846C49.8839 14.7483 49.7913 14.913 49.6921 15.0809C49.5046 15.4008 49.2333 15.8174 49.0487 16.094C48.9605 16.2252 49.3145 16.2435 49.2046 16.4069C47.9458 18.2275 46.5374 19.6418 44.9503 20.9465C44.7942 21.0725 44.7907 20.7035 44.6236 20.8178C43.5764 21.5556 41.8428 22.456 42.048 23.8223C41.4023 24.3501 40.6325 24.9735 39.9054 25.3023C39.4413 25.5102 39.5994 24.9896 39.2424 25.4641C39.1624 25.5701 39.4554 25.6496 39.3224 25.7944C38.7621 26.4039 38.0088 26.9411 37.4502 27.5839C37.3412 27.7116 37.5212 27.8553 37.5115 27.9168C37.4218 28.4243 36.5618 28.434 36.4248 28.4966C35.3834 28.9813 34.8297 29.5879 34.0326 30.23C33.8463 30.3797 34.2569 30.4366 34.0843 30.5892C33.1813 31.3819 32.2053 32.1345 31.2074 32.7583C30.9848 32.8966 31.011 32.5449 30.8964 32.6006C30.3936 32.8479 30.5992 33.3085 30.1236 33.5508C30.0237 33.6024 29.9352 33.39 29.9043 33.3834C29.421 33.2793 29.541 33.8738 29.4846 33.9335C28.779 34.6981 27.9146 34.6584 27.1814 35.3323C27.0939 35.4134 27.4772 35.4697 27.2207 35.6841C25.5147 37.1126 23.6109 38.48 21.7198 39.6405C21.4267 39.8207 21.4937 39.5049 21.4609 39.4974C20.9366 39.3874 21.0856 39.9565 21.0097 40.04C20.4085 40.6828 19.4703 40.8228 19.3829 41.7006C16.2813 43.7693 13.5302 46.2813 10.2425 48.0392C10.2015 48.0618 10.1067 47.7981 10.0256 47.844C9.06721 48.3811 9.46802 48.5992 9.17374 49.4616C9.09764 49.6799 8.28204 49.5302 8.21793 49.5227C7.9773 49.4981 7.88123 49.0705 7.81482 49.0809C7.28591 49.1684 8.1188 50.1875 7.56877 50.6123C7.55027 50.6238 7.47468 50.3762 7.41382 50.3927C7.22429 50.4436 7.14467 50.627 6.96063 50.6644C6.7496 50.7063 6.52199 50.6199 6.32008 50.6034C6.09537 50.6047 5.89018 50.6806 5.76264 51.0192C5.73563 51.1028 6.27307 51.6272 5.80646 51.9564C5.73381 52.0054 5.43789 52.2434 5.18196 52.4511C5.05407 52.5548 4.93595 52.6507 4.84055 52.7255C4.74488 52.8002 4.61277 52.9064 4.55727 52.9408C4.31975 53.0938 4.29596 52.7887 4.27416 52.7945C4.11761 52.8511 4.02144 52.8668 3.93981 52.8734C3.8238 52.9162 3.76129 52.9146 3.70397 52.9035C3.59315 52.88 3.50449 52.8124 3.35336 52.7866L3.3545 52.7535C3.30103 52.8044 3.23037 52.8654 3.21568 53.0052C3.2095 53.2153 3.37122 53.3092 3.44362 53.2873C3.53487 53.2729 3.58269 53.1765 3.62103 53.0631C3.69542 52.8341 3.72561 52.524 3.76046 52.4619C3.80948 52.3559 4.37951 52.506 4.55442 52.5456C4.72347 52.5931 4.58901 52.7899 4.72421 52.8053C5.65231 52.8736 4.9059 52.167 5.11344 51.9131C5.57005 51.3117 6.36565 51.8908 6.94864 51.7433C7.11208 51.7006 6.91368 51.5773 7.04675 51.5038C7.5541 51.2225 7.99963 51.3151 8.49951 50.8399C8.59023 50.7586 8.87908 50.0876 9.34139 50.2827C9.40856 50.3106 9.36174 50.5579 9.61251 50.497C10.0166 50.3932 10.5919 50.1829 10.9598 49.9388C11.2117 49.7674 10.7631 49.5978 11.1358 49.5435C11.3021 49.5192 11.1126 49.8256 11.4193 49.7642C11.7204 49.7057 12.4674 49.3497 12.7181 49.2246C12.9853 49.092 12.7283 48.9267 12.7426 48.9008C12.8306 48.7497 13.3136 48.3851 13.3642 48.3614C15.6693 47.2398 17.9995 46.594 20.2048 45.3521C20.371 45.2584 20.1373 45.0694 20.1614 45.0525C20.7008 44.6604 20.5532 45.5406 21.0761 45.5539C20.7726 45.0866 21.0606 45.0567 21.465 44.7898C21.6602 44.6605 21.4523 44.5241 21.4616 44.4951C21.6276 44.0504 22.0336 44.3187 22.1283 44.3678C22.4661 44.5537 22.5123 44.1139 22.7413 44.2365C22.9692 44.3578 22.7955 44.7909 23.197 44.5877C23.2228 44.3539 22.6931 44.0386 22.9635 43.8111C24.0132 42.9378 26.3766 42.2126 27.3176 41.7878C28.263 41.3612 28.5607 41.1707 29.1546 40.9522C30.1753 40.5836 29.6496 40.4182 30.1776 39.9555C30.7127 39.4889 30.8392 40.4833 31.0187 40.6203C31.1972 40.7576 31.1988 40.5227 31.3583 40.5673C31.5175 40.6119 31.3433 40.8545 31.6189 40.7624C31.8982 40.6684 32.4332 39.9934 32.4182 39.7629C32.4015 39.2672 31.8815 39.001 32.615 38.8159C32.6575 38.8055 32.646 39.0898 32.803 39.0385C34.0569 38.6183 35.285 38.0085 36.5183 37.571C36.6903 37.5101 36.6711 37.83 36.7725 37.7973C37.8359 37.4546 37.2745 37.2174 37.5862 36.4778C37.6557 36.7272 37.7668 36.9149 37.9175 37.0331C38.1832 37.2318 38.579 37.2199 39.0639 36.9758C39.5218 36.7457 39.3055 36.5182 39.4963 36.183C39.5537 36.0821 39.9531 36.1107 39.9429 35.9571C39.9105 35.4545 39.4055 35.1305 40.2054 34.9547C40.2405 34.9479 40.2576 35.2233 40.3703 35.1832C41.173 34.8874 41.0985 34.3824 41.8555 33.9318C42.3692 33.619 43.7927 33.2268 44.4269 32.9591C44.715 33.6814 45.4161 33.127 45.4294 32.5218C45.6768 32.4087 45.8364 32.3256 46.1221 32.186C46.4021 32.0495 46.6443 31.9394 46.8558 31.8741C46.999 31.8301 47.0129 32.0742 47.0405 32.0874C47.5411 32.2609 47.5182 31.6913 47.5804 31.6374C47.6063 31.6106 47.731 31.5371 47.7917 31.4981C47.8254 31.4769 47.853 31.4594 47.8755 31.445C47.8868 31.4378 47.8967 31.4313 47.9057 31.4256C47.9132 31.4218 47.8865 31.4343 47.9283 31.4142C47.9386 31.4094 47.9463 31.4057 47.9617 31.399C47.9712 31.3952 47.9762 31.392 48.0139 31.3797C48.046 31.3768 48.028 31.3515 48.2279 31.3598C48.2841 31.3697 48.3715 31.3732 48.5062 31.4825C48.6383 31.5831 48.7066 31.8173 48.6807 31.9387C48.6279 32.1893 48.565 32.1921 48.5403 32.2329C48.445 32.3224 48.4545 32.3019 48.4382 32.3154C48.4278 32.3219 48.4223 32.325 48.417 32.3281C48.4066 32.3341 48.3984 32.3386 48.3887 32.3439C48.3791 32.3495 48.3816 32.3484 48.3779 32.3508C48.3729 32.3542 48.3675 32.3577 48.3618 32.3613C48.3167 32.3904 48.244 32.4315 48.1529 32.4804C48.1025 32.5081 48.0454 32.5378 47.9825 32.5693C47.6894 32.7166 47.4873 32.7987 47.2062 32.9276C46.7166 33.1484 46.2219 33.3967 45.7779 33.8361C45.7469 33.8673 45.9294 34.3779 45.4727 34.1679C45.4425 34.1528 45.679 33.7599 45.1772 33.9909C44.6682 34.2253 43.6198 34.4275 43.0246 34.9934C42.9555 35.0602 42.8777 35.2361 42.7146 35.3956C42.6407 35.4716 42.5632 35.5351 42.4822 35.5656C42.3689 35.6112 42.2329 35.6316 42.1225 35.5835C42.0918 35.5707 42.0752 35.5233 42.054 35.4724C42.0435 35.4469 42.032 35.4205 42.0177 35.3967C42.0092 35.3854 41.9826 35.3814 41.9566 35.3767C41.9161 35.3696 41.9386 35.3807 41.7622 35.3644C41.7201 35.3548 41.6374 35.3419 41.5512 35.2422C41.4619 35.1394 41.4678 34.9888 41.4913 34.9319C41.5394 34.8112 41.5712 34.8098 41.5911 34.7894C41.6231 34.7691 41.6197 34.7815 41.6322 34.7781C41.6507 34.7774 41.6657 34.7767 41.6794 34.7744C41.7066 34.7699 41.7288 34.7586 41.7512 34.7411C41.7878 34.7108 41.8669 34.6305 41.8806 34.5969C41.9196 34.5225 41.9829 34.4617 42.2233 34.5902C42.341 34.6559 42.493 34.694 42.6405 34.7172C42.7581 34.757 42.8851 34.7738 43.0231 34.7568C43.2828 34.7317 43.6842 34.5186 43.8718 34.2346C43.8875 34.2155 43.8269 33.7574 44.0481 33.6449C44.2199 33.5578 44.4738 33.4487 44.7019 33.352C44.8946 33.2744 45.0991 33.1887 45.2703 33.0948C45.435 33.0043 45.2025 32.8256 45.2289 32.8057C46.4177 31.9951 47.1354 31.8819 48.5604 31.2384C48.7702 31.1485 49.204 30.5036 49.7793 30.5243C50.4166 30.5429 50.5062 31.9834 51.5275 31.0858C51.9706 30.7085 51.6361 28.9985 52.8494 29.3326C54.3859 28.2754 55.8881 27.9804 57.3604 26.8565C57.4264 26.8063 57.4399 26.2729 57.6168 26.1865C57.8796 26.0593 58.1249 26.1757 58.3195 26.089C59.0363 25.7845 59.585 25.2844 60.2993 24.9402C60.5706 24.809 60.5813 25.0575 60.9082 24.8992C61.2364 24.74 61.3148 24.3639 61.8304 24.2536C62.2161 24.1735 62.8632 24.5164 63.3304 24.3499C63.0686 23.8131 63.3501 23.6786 63.7822 23.2728C63.8652 23.1945 63.6643 23.0655 63.6986 23.019C63.8359 22.8254 64.0911 22.8858 64.2174 22.6874C64.2486 22.6395 64.1555 22.4579 64.1759 22.4085C64.3411 21.9819 65.0677 22.1174 65.1947 22.141C65.6763 22.2301 65.714 21.9104 66.0355 21.8761C66.357 21.8417 66.0285 22.1835 66.3729 22.0838C67.0708 21.8857 67.9818 21.3692 68.5719 21.0691C68.8156 20.9438 68.524 20.7898 68.5559 20.7663C69.0248 20.4414 69.6781 20.425 69.7131 19.7941C70.7236 20.8459 69.9594 19.511 70.8429 19.3632C70.9131 19.352 71.2965 19.8992 71.1134 20.1055C70.9303 20.3116 70.4901 20.3089 70.2503 20.6064C70.1929 20.677 70.0627 21.4471 70.0238 21.5101C69.7163 22.004 69.1958 21.1587 69.1473 21.123C68.605 20.7447 68.4405 21.5876 68.3033 21.7118C67.7266 22.2548 67.1027 22.4258 66.6313 22.8447C66.3238 23.1172 66.5917 23.7094 66.3085 23.8359C65.3746 24.2538 64.6467 23.6144 64.1982 24.7377C64.1032 24.9768 64.6014 25.5157 63.729 25.3454C63.6683 25.3377 62.9109 25.1604 62.768 25.6005C62.75 25.656 62.8473 25.8383 62.8067 25.8793C62.5336 26.1502 62.2423 26.1178 61.9334 26.3699C61.6247 26.6219 61.2711 26.9414 60.859 27.0796C60.6104 27.1635 60.1419 26.9754 59.9911 26.9485C59.5616 26.8682 59.4508 27.4302 59.1156 27.2353C58.7682 27.0451 58.936 26.3889 58.2927 26.4873C58.5224 26.9731 58.732 27.4856 58.9507 27.9807C57.7306 28.604 56.5386 29.038 55.4949 29.6176C55.3659 29.6898 55.634 29.8745 55.4997 29.9582C54.8374 30.3609 54.1542 30.4902 53.5397 30.9088C53.0529 31.2402 52.7123 31.767 52.1975 32.1278C51.5503 31.776 50.8197 32.4008 50.246 32.643C50.0439 32.7288 49.9802 32.5768 49.8202 32.6014C49.2254 32.6942 49.7168 33.0474 49.6209 33.1954C49.1172 33.8776 48.4584 32.8363 47.7378 33.2565C47.6967 33.2797 47.5496 34.1017 47.5115 34.1685C47.3852 34.3872 47.3348 34.3496 47.2916 34.2635C47.249 34.1771 47.209 34.0446 47.0492 34.1029C46.4736 34.3118 46.0546 34.3597 45.6333 34.8055C45.5599 34.9097 45.2373 35.5488 44.7943 35.4308C44.7336 35.4167 44.6528 35.2142 44.614 35.2209C43.972 35.3306 44.2066 35.9783 43.9835 36.3652C43.8658 36.5624 43.6863 36.5936 43.4003 36.6352C43.2793 36.6437 43.1796 36.6275 43.1046 36.6028C43.046 36.5681 42.9325 36.573 42.9149 36.5447C42.8448 36.4866 42.8838 36.3943 42.8477 36.3818C42.8169 36.3665 42.7773 36.3819 42.8043 36.3656C42.9019 36.3074 42.9898 36.3053 42.9945 36.2824C42.9668 36.0621 42.8747 36.0174 42.7756 36.0319C42.7506 36.0242 42.616 36.0972 42.6114 36.0959C42.6108 36.0947 42.6171 36.0899 42.6443 36.0679C42.6587 36.056 42.6752 36.0429 42.7107 36.0103C42.7473 35.9751 42.7974 35.9356 42.8948 35.8032C42.9427 35.7335 43.0085 35.6402 43.0737 35.453C43.1339 35.2742 43.2042 34.9386 43.0537 34.5431C42.9068 34.1442 42.5559 33.8834 42.338 33.7971C42.1097 33.7017 41.9682 33.6953 41.8672 33.6887C41.6699 33.6836 41.6018 33.7052 41.5447 33.715C41.3563 33.7616 41.4057 33.7574 41.397 33.7582C41.3972 33.7588 41.3988 33.759 41.4014 33.7587C41.4069 33.7581 41.4166 33.756 41.4291 33.753C41.5005 33.9039 41.5734 34.0062 41.6525 34.0593C41.7304 34.113 41.8198 34.1149 41.85 34.1004C41.9291 34.0628 41.9293 33.8873 41.731 33.6524C41.7093 33.6268 41.6512 33.6532 41.6001 33.6807C41.5112 33.7256 41.4517 33.7601 41.4291 33.753C41.4032 33.0515 41.7902 32.7715 42.6111 33.0499C42.9742 33.1904 42.8812 33.6102 43.5861 33.1238C43.8941 32.9087 43.5606 32.5618 43.804 32.3001C44.3639 31.7006 45.4221 31.6462 46.1053 31.2228C46.3364 31.0777 45.9779 30.9781 46.1466 30.8637C46.3942 30.6991 46.5578 30.6494 46.8295 30.5398C46.9591 30.4881 47.0237 30.4689 47.1606 30.4014C47.2279 30.3681 47.2784 30.3407 47.2944 30.3273C47.2953 30.3265 47.2961 30.3258 47.2966 30.3251C47.2969 30.3248 47.2971 30.3245 47.2973 30.3242C47.2945 30.3258 47.2896 30.3282 47.2653 30.3424C47.252 30.3503 47.2363 30.3591 47.1923 30.3877C47.1694 30.403 47.1404 30.4215 47.0793 30.4684C47.0484 30.4928 47.0069 30.525 46.941 30.5877C46.8741 30.6592 46.7787 30.7248 46.6048 31.0293C46.5269 31.1809 46.3915 31.4482 46.3919 31.8958C46.3732 32.3417 46.6716 32.9797 47.048 33.2545C47.8183 33.7893 48.1068 33.624 48.279 33.6492C48.6048 33.6187 48.6349 33.5859 48.704 33.5697C48.8074 33.5358 48.8261 33.5255 48.8501 33.5161C48.8892 33.4996 48.895 33.4965 48.9004 33.4942C48.8968 33.4966 48.8965 33.4975 48.8939 33.4996C48.8894 33.5034 48.8832 33.5083 48.8758 33.5141C48.8608 33.5258 48.8405 33.5413 48.8155 33.5604C48.7745 33.5908 49.0081 33.7687 48.8438 33.854C48.7234 33.9161 48.7229 33.9177 48.6547 33.9524C48.5979 33.9813 48.535 34.0126 48.4659 34.0463C48.3336 34.1109 48.1389 34.2043 48.05 34.2427C47.8213 34.345 47.5529 34.46 47.2398 34.5965C46.7697 34.7907 46.1801 35.0408 45.6045 35.3302C45.3573 35.4543 45.0095 35.6709 44.6195 35.9053C44.4251 36.0221 44.2212 36.1429 44.0212 36.2552C43.8549 36.3502 43.7085 36.4287 43.5703 36.4907C42.6274 36.915 41.1212 37.2519 40.394 37.7264C39.8736 38.0582 40.1094 38.2335 39.9498 38.5161C39.7669 38.8387 39.294 38.9321 38.893 38.954C38.6269 38.962 38.4019 38.932 38.3382 38.9199C38.3329 38.919 38.7921 38.6155 38.4709 38.6275C38.1923 38.4534 38.3431 38.916 38.3382 38.9199C38.2348 38.9027 37.2486 39.3375 37.086 39.4765C36.9965 39.5528 37.1663 39.7463 37.1175 39.7819C35.9903 40.6052 34.6815 41.3398 33.3811 41.8665C33.3568 41.8731 33.2645 41.6071 33.2088 41.626C32.4175 41.8869 32.0616 42.4486 31.5455 42.9356C31.0203 43.427 30.5373 43.5939 29.9341 43.3611C29.4839 43.6548 28.7218 43.8001 28.2884 43.8735C27.8545 43.9471 28.0465 44.4581 28.0182 44.4843C27.0964 45.3296 26.3601 45.3495 25.2492 45.8478C24.694 46.097 23.7252 46.6649 23.1821 46.9991C22.7443 47.2685 22.4175 47.2876 22.046 47.561C21.9958 47.5978 22.1577 47.7876 22.1451 47.8042C21.8205 48.2861 21.7782 47.6482 21.6387 47.5991C21.145 47.4138 20.8189 47.3462 20.3067 47.7977C20.1877 47.9019 20.1666 48.8593 19.9477 49.0213C19.6613 49.2309 19.6532 48.8957 19.3358 49.132C19.3089 49.1519 19.3963 49.3187 19.1798 49.4145C18.1978 49.8511 17.0782 50.2688 16.0915 50.7594C15.9497 50.8289 16.2601 51.0118 16.058 51.1164C15.1301 51.597 14.1038 52.0675 13.1125 52.3715C12.8681 52.4455 12.9247 52.1891 12.8491 52.1557C12.3848 51.9564 12.2123 52.6353 12.1282 52.685C10.5196 53.7014 9.04539 53.8275 7.27303 54.7728C7.19807 54.8183 6.57672 55.6762 6.01748 55.327C6.0009 55.3148 5.85861 55.218 5.67814 55.1809C5.50119 55.1426 5.31677 55.155 5.15184 55.3788C5.12957 55.406 5.48912 55.5913 4.97362 55.6891C4.71494 55.7311 4.46989 55.827 3.87573 55.8643C3.72168 55.8703 3.56111 55.8737 3.30031 55.8436C3.17195 55.8274 3.06626 55.8111 2.89156 55.7681C2.71471 55.7237 2.52494 55.6602 2.33067 55.5701C1.89935 55.3804 1.37008 54.9678 1.05968 54.4756C0.745819 53.9895 0.662403 53.5838 0.628787 53.3804L0.47168 52.584L0.677101 51.9737C1.00796 51.1224 1.2457 51.0406 1.44643 50.8496C1.67794 50.6568 1.87159 50.6821 2.09516 50.5899C2.20512 50.5467 2.31535 50.4841 2.41585 50.3838C2.46611 50.3336 2.51397 50.2739 2.55822 50.2024C2.5895 50.1422 2.60467 50.0807 2.6184 50.0018C2.60043 49.9763 2.66789 48.7177 3.29887 49.0292C3.40054 49.0823 3.77274 49.6451 4.01652 49.0089C4.06514 48.8847 3.80636 48.8982 3.98866 48.634C4.29982 48.2032 4.84833 48.0043 5.11729 47.4174C5.15831 47.3185 5.2387 46.6793 5.7136 46.7526C5.78579 46.7657 5.84765 47.0016 5.99535 46.9202C6.68434 46.5443 7.37854 45.8284 8.09481 45.4816C8.36312 45.3473 8.46085 45.7291 8.7677 45.6193C9.06982 45.513 9.65959 45.1854 9.80963 44.8643C9.96184 44.5415 9.33705 44.2868 9.6897 43.9631C11.2741 42.5178 13.1648 41.5229 14.862 40.305C15.1187 40.1206 14.7843 40.1132 15.1551 39.8285C16.5022 38.7935 18.7208 36.8663 20.1652 36.3154C21.3242 35.8731 20.3004 36.9946 21.1059 36.559C21.491 36.3505 21.4549 35.5291 21.5251 35.4484C22.2058 34.6539 22.9627 34.4469 23.6319 33.8128C23.7708 33.6812 23.4563 33.5795 23.5764 33.4698C23.9847 33.0934 24.5194 32.832 24.9237 32.4882C25.1047 32.3335 24.9421 32.1959 25.1244 32.074C25.5588 31.7803 25.9763 31.5643 26.4975 31.403C26.545 31.3882 26.4587 31.7861 26.7688 31.5544C27.271 31.1782 27.9958 30.8511 28.4395 30.2437C28.57 30.0633 28.2803 29.685 28.8444 29.656C28.9624 29.6497 29.2234 30.1738 29.3327 29.4532C29.3525 29.3324 29.6333 28.2522 30.2414 28.3132C30.4027 28.3285 30.93 28.5044 31.0842 28.2846C31.104 28.2534 30.8342 28.1426 30.9845 27.9886C31.5164 27.4495 32.1395 26.9754 32.6735 26.4311C32.8197 26.282 32.4129 26.2743 32.6361 26.0586C33.2498 25.4653 34.0952 24.847 34.7622 24.3911C35.0141 24.2186 34.9953 24.5219 35.0273 24.5261C35.5533 24.5896 35.3753 24.0525 35.4454 23.9526C35.8861 23.3361 36.4633 23.1634 36.9159 22.6829C37.0408 22.5509 36.7801 22.4466 36.7926 22.4062C36.9398 21.9885 37.0184 22.5159 37.2361 22.3911C37.8484 22.0411 38.399 21.5248 38.8708 21.0554C39.0436 20.8827 38.6466 20.8512 38.8033 20.6993C39.784 19.7428 40.7617 18.8649 41.7996 18.0641C41.9894 17.9193 42.0404 18.1828 42.1113 18.1843C42.6077 18.1947 42.5947 17.5153 42.6559 17.3859C42.8839 16.8487 43.1649 16.8393 43.446 16.4849C44.1186 15.6284 44.9312 14.6785 45.566 13.8057C45.7059 13.6149 45.8714 13.3753 45.9944 13.1811C46.1221 12.9783 46.2012 12.8472 46.2845 12.6816C46.3587 12.5355 46.3837 12.458 46.3901 12.4819C46.3975 12.5132 46.376 12.709 46.4993 13.0254C46.5847 13.2476 46.7525 13.4745 46.9039 13.6007C47.0336 13.7104 47.1342 13.7528 47.177 13.7637C47.2505 13.7748 47.1359 13.709 46.9506 13.6701C46.4942 13.5831 46.0744 13.5542 45.382 13.5844C44.5976 13.6069 43.5296 13.853 42.4339 14.2437C42.2808 14.2981 42.53 14.528 42.3997 14.5787C40.6989 15.2313 38.9644 15.8443 37.2668 16.7219C37.1273 16.7937 37.4504 16.9541 37.2306 17.0782C36.7686 17.3403 36.2005 17.5947 35.6781 17.75C35.4307 17.8228 35.629 17.4568 35.3847 17.5334C34.8197 17.7096 34.2146 17.9907 33.6977 18.3064C33.4737 18.4436 33.9563 18.5195 33.6551 18.6779C31.6029 19.7667 29.6228 20.9145 27.3888 21.7768C27.2348 21.8365 26.821 21.3999 26.5791 21.6711C26.6384 21.8246 26.7358 21.9889 26.8134 22.1445C23.9158 23.9481 20.9462 25.5663 18.0699 27.4365C17.9491 27.5152 18.3277 27.636 18.0949 27.7896C16.7442 28.6826 15.5008 29.6363 13.9705 30.3363C13.819 30.4062 13.5741 29.911 13.2256 30.2588C13.1643 30.3202 12.6113 30.8033 12.5272 31.0098C12.5168 31.0392 12.7728 31.1688 12.5865 31.3117C11.5007 32.1389 10.3167 32.9388 9.13815 33.6358C8.94728 33.7482 8.97088 33.3903 8.83334 33.4687C7.85922 34.0262 7.02883 34.9311 6.04663 35.3969C5.38536 35.7112 5.30054 35.1801 4.71547 35.0578C4.6326 35.0407 4.28137 35.3108 4.09515 35.1165C3.62522 34.6287 3.3298 33.9173 2.80926 33.4133C2.69705 33.3044 2.33402 33.8142 2.37557 33.2981C2.37896 33.2629 2.64174 32.8905 2.64696 32.7235C2.65083 32.6077 2.37388 32.4802 2.42385 32.2958C2.47412 32.1113 2.74927 32.1839 2.86763 31.9205C2.98503 31.6562 2.70462 31.4819 3.08358 31.1351ZM26.2994 44.2257C25.8283 44.1693 26.2013 45.0506 26.4834 44.6545C26.4966 44.6343 26.3236 44.228 26.2994 44.2257ZM56.2347 28.384C55.592 28.2475 55.587 28.951 56.046 29.0762C56.5066 29.2001 56.431 28.4246 56.2347 28.384ZM60.8344 25.6059C60.1467 25.5932 60.6948 26.8355 61.1366 26.2927C61.1627 26.2614 60.8747 25.6065 60.8344 25.6059ZM6.0185 33.8567C6.00633 33.8499 5.74782 34.0373 5.74968 34.0519C5.80361 34.3952 6.31923 34.0214 6.0185 33.8567ZM65.3963 22.8226C65.1436 22.7486 64.7673 23.1857 65.0779 23.2795C65.3274 23.3554 65.7095 22.915 65.3963 22.8226ZM7.13887 52.1693C7.12669 52.159 6.9117 52.2318 6.94653 52.3044C7.05473 52.5405 7.32559 52.352 7.13887 52.1693ZM73.4699 18.5574C72.2055 19.1645 70.9597 18.5553 72.3452 17.9695C72.5979 17.8626 71.9899 18.5595 72.3446 18.4872C72.9927 18.354 73.0457 17.5325 73.8112 17.5555C73.949 17.5608 73.542 18.5256 73.4686 18.5599C73.4693 18.5591 73.4693 18.5583 73.4699 18.5574ZM25.5843 43.3003C25.5714 43.2927 25.2835 43.4227 25.2826 43.4372C25.2646 43.785 25.8444 43.5232 25.5843 43.3003ZM10.7713 47.3125C10.8019 47.323 11.426 46.8839 11.4192 46.8581C11.4334 46.2264 10.1939 47.0955 10.7713 47.3125ZM44.4464 32.9724C44.5856 32.5596 45.0304 32.2939 45.4279 32.5221C45.132 32.6491 44.729 32.85 44.4464 32.9724Z" fill="white"/>
</g>
<defs>
<clipPath id="clip0_170_144">
<rect width="74" height="92" fill="white"/>
</clipPath>
</defs>
</svg>
