<svg width="116" height="143" viewBox="0 0 116 143" fill="none" xmlns="http://www.w3.org/2000/svg">
<path d="M32.7425 6.73767C32.5652 6.51957 32.4432 6.34143 32.3685 6.23383C32.297 6.1295 32.2478 6.06147 32.3266 6.19271C32.3841 6.27801 32.4233 6.36497 32.7013 6.69227C32.8647 6.87613 33.096 7.12825 33.5262 7.43851C33.6342 7.51549 33.7553 7.59529 33.8922 7.67555C34.0304 7.75539 34.1698 7.83396 34.4271 7.94641C34.9004 8.15225 35.5259 8.32607 36.2206 8.34778C36.9129 8.37444 37.6463 8.23312 38.2374 7.99009C38.5736 7.85058 38.6992 7.77691 38.8729 7.67852C39.0362 7.5834 39.1839 7.48479 39.3171 7.3865C39.8501 6.98948 40.152 6.62064 40.3608 6.33826C40.5932 6.01016 40.6138 5.95119 40.6846 5.82914C40.7443 5.72036 40.7891 5.62878 40.8252 5.55041C40.9735 5.2156 40.9676 5.19091 40.9918 5.1211C41.0083 5.06443 41.0078 5.05612 41.0046 5.05873C40.9983 5.06143 40.972 5.13551 40.9483 5.19497C40.837 5.50438 40.6784 5.90621 40.514 6.27678C40.4119 6.50894 40.1743 6.33286 40.0938 6.48286C39.9369 6.77632 40.0081 7.12486 39.8342 7.41118C39.7743 7.51168 39.3837 7.30596 39.3302 7.41381C39.1823 7.72666 39.1147 8.00687 39.0558 8.30858C38.9962 8.61432 38.9458 8.93985 38.8519 9.22906C37.8869 12.3201 37.2288 15.3214 36.5024 18.4834C36.2604 19.5444 35.6758 20.7193 35.6545 21.8438C35.6534 21.9691 36.029 21.9579 36.0551 21.9862C36.4516 22.4295 35.7387 22.1838 35.6003 22.4087C35.053 23.3035 34.8266 24.4338 34.8136 25.3576C34.8068 25.7649 35.5963 25.4887 35.1228 25.8216C35.0907 25.8449 34.7222 25.6776 34.6624 25.7804C34.5276 26.013 34.5147 26.5049 34.4501 26.6989C34.3734 26.9253 34.3405 27.039 34.3116 27.1752C34.2932 27.2615 34.2764 27.3568 34.2507 27.4969C34.1576 27.9854 33.8674 28.5278 33.8671 29.0541C33.8681 29.1667 34.2883 29.0901 34.3257 29.2756C34.3629 29.4616 34.2509 29.9128 34.1314 30.0493C34.0119 30.1863 33.7123 30.0676 33.6365 30.0824C32.9973 30.1997 33.7341 30.8991 33.7431 30.9698C33.8736 32.3068 33.2186 33.2674 33.0102 34.4721C32.8567 35.3648 32.8467 36.3444 32.6737 37.2037C32.4698 38.2063 32.1028 39.036 31.9648 40.0309C31.9499 40.1352 32.4358 40.0959 32.4186 40.2233C32.2376 41.5616 31.9455 42.9099 31.3907 44.2052C31.3346 44.3354 30.9582 44.0876 30.8778 44.2132C30.3954 44.979 29.3577 46.1347 31.0436 46.9473C30.8742 47.4925 30.6826 48.1476 30.2333 48.5926C29.9448 48.8748 29.5572 48.4812 29.6754 48.9115C29.7016 49.0082 30.1113 48.9623 30.1211 49.102C30.1628 49.6873 29.926 50.2776 30.0255 50.8768C30.0468 50.998 30.4008 51.0297 30.4577 51.0732C30.917 51.4355 29.9968 51.7302 29.9184 51.8158C29.3298 52.475 29.4084 53.0655 29.2739 53.7495C29.2424 53.9087 29.7443 53.8042 29.7308 53.9603C29.6523 54.7818 29.4634 55.6027 29.1145 56.3542C29.0356 56.5219 28.6659 56.2886 28.6078 56.365C28.3567 56.7028 29.0951 56.9193 28.8693 57.2436C28.8227 57.3121 28.4888 57.2092 28.4489 57.2161C27.8224 57.3236 28.6235 57.6563 28.6322 57.714C28.7603 58.4516 27.8102 58.7439 27.8155 59.4324C27.817 59.5149 28.2808 59.4116 28.2587 59.6388C28.112 61.1629 27.7162 62.7253 27.1147 64.1506C27.0218 64.3724 26.7254 64.1516 26.6828 64.1593C26.0164 64.2887 26.8284 64.5863 26.847 64.6671C26.972 65.3025 26.175 65.7342 27.1053 66.3082C26.3323 68.7658 26.4835 71.3603 25.1919 73.7176C25.1765 73.7477 24.7718 73.6254 24.7428 73.6858C24.3897 74.4146 25.0558 74.371 25.7626 75.0042C25.9406 75.1598 24.931 75.3949 24.856 75.4185C24.5801 75.5027 23.9843 75.2782 23.9281 75.312C23.4843 75.5965 25.5298 75.8555 25.4581 76.3237C25.4525 76.3379 25.0871 76.2183 25.0437 76.252C24.9078 76.3563 25.038 76.501 24.8904 76.6016C24.5492 76.8318 23.5439 76.7802 24.0573 77.2786C24.1241 77.3424 25.2921 77.4383 25.1744 77.8442C25.1266 78.0049 25.0345 78.7467 24.9279 78.9461C24.8215 79.144 24.4706 78.9443 24.4522 78.9567C23.8756 79.4413 23.7039 79.1946 22.9329 79.3623C22.1649 79.5293 23.9097 79.7122 24.0863 79.8537C24.2624 79.995 23.7952 80.3415 23.6389 80.4217C23.4825 80.5013 23.2643 80.3406 23.171 80.4182C22.5598 80.9365 23.9928 80.8073 24.2388 81.0447C24.8203 81.615 23.4853 81.7597 23.2976 82.1629C23.247 82.271 23.5534 82.2216 23.5661 82.3263C23.6122 82.7414 23.1756 82.9253 23.4764 83.4421C23.525 83.5292 24.2452 84.0083 23.644 84.1595C23.5574 84.181 23.2505 84.04 23.1544 84.1982C23.0104 84.4342 22.8745 84.8823 22.9422 85.174C22.9923 85.3893 23.5541 85.2308 23.3532 85.4644C23.2636 85.5685 22.9848 85.3121 22.8422 85.5114C22.6998 85.7097 22.6348 86.2643 22.6177 86.4622C22.6 86.6662 23.0165 86.6121 23.0412 86.6323C23.1819 86.7529 23.3199 87.1712 23.3145 87.2061C23.113 88.9903 22.2141 90.5078 22.2042 92.249C22.203 92.3845 22.6381 92.3535 22.6423 92.3748C22.7572 92.8559 21.6818 92.3418 21.2617 92.6111C22.1263 92.6817 21.9452 92.8493 21.995 93.1884C22.0197 93.3521 22.3637 93.3114 22.3958 93.3304C22.869 93.6325 22.1947 93.7081 22.0556 93.7322C21.5437 93.8217 22.1005 94.0707 21.758 94.1334C21.418 94.1963 20.9686 93.8852 20.9318 94.2043C21.2276 94.331 22.0611 94.2139 22.1602 94.462C22.5366 95.3862 21.6787 97.0058 21.5197 97.7035C21.3611 98.3977 21.3872 98.6375 21.221 99.0402C20.9202 99.7716 21.5529 99.5725 21.7633 100.083C21.9733 100.598 20.5371 100.173 20.2127 100.2C19.9372 100.223 20.1234 100.311 20.0721 100.374C20.063 100.386 20.0466 100.396 20.019 100.405C19.8347 100.467 19.6442 100.256 19.5532 100.446C19.4622 100.637 19.9522 101.248 20.2727 101.36C20.9519 101.598 21.7166 101.455 21.391 101.937C21.3718 101.964 20.9988 101.817 20.9449 101.925C20.5286 102.789 20.3918 103.675 20.0049 104.564C19.9515 104.683 19.5376 104.515 19.5016 104.583C19.1264 105.295 19.8857 105.124 20.6339 105.64C19.5773 105.403 18.8928 105.542 18.8112 106.094C18.7616 106.428 19.2375 106.424 19.5354 106.697C19.6253 106.778 19.2712 106.98 19.4846 107.054C20.1822 107.298 21.0168 107.18 20.616 107.726C20.5972 107.75 20.2158 107.614 20.1797 107.7C19.945 108.253 20.686 108.425 20.6925 109.046C20.7004 109.514 20.1172 110.35 19.966 110.885C18.7666 110.705 18.9687 111.262 19.7673 111.586C19.6839 111.931 19.6767 112.317 19.5112 112.658C19.4549 112.774 19.1187 112.645 19.0789 112.655C18.4564 112.804 19.2392 113.076 19.2597 113.158C19.4453 114.047 18.742 114.601 19.2175 115.514C19.2348 115.546 20.0614 115.715 19.4215 115.839C19.3775 115.847 19.037 115.528 18.9525 115.899C18.8669 116.278 18.3222 116.875 18.6262 117.483C18.7 117.625 19.328 118.049 18.7613 118.225C18.6844 118.248 18.4511 118.175 18.3108 118.204C17.8634 118.299 18.6924 118.512 17.9494 118.588C17.2062 118.665 16.6145 118.956 17.0252 119.573C17.037 119.592 17.6849 119.82 17.649 119.984C17.591 120.247 17.3951 120.596 17.358 120.864C17.3405 120.993 17.7673 120.975 17.7714 120.998C17.8648 121.93 17.3985 122.494 17.0876 123.417C17.0291 123.591 17.5128 124.185 17.0137 124.443C16.466 124.732 14.4997 124.005 14.8433 124.948C14.9801 125.328 17.486 126.178 16.0516 126.563C16.1805 127.834 15.3169 128.788 15.5786 130.076C15.5901 130.133 16.2782 130.428 16.2468 130.55C16.1985 130.732 15.8463 130.769 15.8007 130.899C15.5957 131.472 15.8004 131.983 15.6529 132.546C15.5995 132.75 15.2659 132.616 15.2029 132.854C15.1408 133.087 15.5672 133.334 15.285 133.631C15.07 133.858 14.097 133.91 13.9245 134.235C14.8412 134.417 14.7783 134.652 14.9475 135.089C14.9805 135.173 15.3153 135.153 15.3475 135.195C15.486 135.367 15.1921 135.472 15.345 135.646C15.3815 135.689 15.6949 135.75 15.7425 135.788C16.1592 136.116 15.3807 136.37 15.2437 136.422C14.7272 136.598 15.1128 136.793 14.8928 136.951C14.6699 137.124 14.4987 136.771 14.3417 136.991C14.0185 137.438 13.955 138.052 13.848 138.553C13.8084 138.747 14.2519 138.691 14.2559 138.721C14.2888 139.14 13.77 139.472 14.5676 139.845C12.358 139.756 14.7332 140.129 14.2131 140.626C14.1713 140.666 13.1349 140.579 13.0123 140.369C12.8875 140.175 13.2545 139.934 13.06 139.66C13.0138 139.598 12.1166 139.08 12.0657 139.03C11.6754 138.593 13.2129 138.809 13.2998 138.807C14.2412 138.765 13.2868 138.165 13.2356 138.046C12.9989 137.505 13.2907 137.136 13.1368 136.675C13.0363 136.383 12.0419 136.174 12.112 135.971C12.3449 135.291 13.7835 135.308 12.6948 134.445C12.4632 134.257 11.3449 134.199 12.2977 133.848C12.3595 133.817 13.2098 133.611 12.7527 133.303C12.695 133.265 12.3766 133.207 12.3563 133.167C12.2264 132.901 12.5132 132.765 12.4357 132.501C12.3599 132.228 12.2349 131.885 12.3977 131.599C12.4949 131.429 13.1267 131.32 13.2874 131.259C13.7483 131.096 13.1084 130.712 13.6425 130.647C14.1791 130.583 14.901 131.015 15.2999 130.677C14.4744 130.518 13.6304 130.336 12.8017 130.167C12.9808 129.317 13.3931 128.525 13.5078 127.623C13.52 127.519 13.0564 127.55 13.058 127.435C13.0668 126.951 13.4557 126.579 13.4157 126.034C13.3785 125.64 12.9759 125.139 12.9247 124.704C13.9172 124.594 13.6903 123.952 13.8477 123.525C13.9024 123.375 14.1545 123.426 14.255 123.328C14.6282 122.957 13.7573 123.02 13.6437 122.883C13.1607 122.284 15.0634 122.57 15.1071 121.986C15.11 121.956 14.1553 121.424 14.1004 121.361C13.7405 120.966 14.4616 121.362 14.5688 121.166C14.766 120.8 15.0465 120.589 14.8162 120.111C14.7477 119.971 14.1626 119.57 14.6897 119.394C14.7587 119.37 15.0911 119.44 15.1147 119.416C15.5153 118.985 14.4656 118.802 14.1498 118.479C13.8331 118.162 14.6225 117.858 14.8449 117.804C15.4205 117.663 15.051 118.009 15.1024 118.028C15.7144 118.264 15.6509 117.946 15.7396 117.719C16.7775 117.841 16.7649 117.501 15.8274 117.483C15.7249 117.482 15.7938 117.679 15.7396 117.719C14.7571 117.362 14.6814 116.981 15.6894 116.713C16.1615 116.589 16.6536 116.838 16.5461 116.257C16.4979 115.992 15.7721 115.985 15.6111 115.732C15.2434 115.159 16.0093 114.558 15.9815 114.013C15.971 113.818 15.5547 113.946 15.534 113.811C15.4781 113.452 15.8147 113.187 15.7157 112.812C15.7063 112.778 15.2872 112.798 15.2978 112.687C15.372 111.833 15.7346 111.157 15.8636 110.293C15.9251 109.881 15.8106 109.059 15.9135 108.65C16.0918 107.925 16.8138 107.074 16.7601 106.391C16.7266 105.947 16.3039 105.996 16.0501 105.779C15.557 105.367 16.6058 104.887 16.7667 104.824C16.772 104.822 16.8196 105.195 17.0552 105.032C17.5072 104.979 16.7681 104.828 16.7667 104.824C16.8706 104.784 17.0614 104.069 17.003 103.911C16.971 103.826 16.578 103.819 16.5687 103.775C16.357 102.725 16.379 101.807 16.6925 100.826C16.7026 100.809 17.1322 100.893 17.1506 100.853C17.3035 100.539 17.2133 100.259 17.0608 99.9798C16.9458 99.7682 16.7952 99.5582 16.687 99.3344C16.4355 98.8145 16.5902 98.4538 17.3703 98.2738C17.3236 97.9065 17.7188 97.447 17.9563 97.1868C18.1937 96.9263 17.356 96.776 17.3431 96.7459C16.9194 95.8513 17.4644 95.4465 17.6506 94.6293C17.74 94.2444 17.723 93.4482 17.6908 92.9934C17.6632 92.6397 17.8885 92.4611 17.8048 92.1317C17.7937 92.0872 17.4127 92.0787 17.4001 92.0639C16.9987 91.6549 17.8929 91.9472 18.0664 91.8978C18.6973 91.7199 19.0363 91.6032 18.816 91.1275C18.7649 91.0235 17.4877 90.5296 17.4366 90.3289C17.3728 90.067 17.8331 90.2256 17.7542 89.9511C17.7478 89.9277 17.4553 89.8919 17.4901 89.7346C17.6491 88.9954 17.9234 88.2674 18.0053 87.4698C18.0171 87.364 17.5353 87.4342 17.5449 87.2803C17.5908 86.5537 17.7134 85.8096 18.0292 85.1428C18.1085 84.9783 18.4171 85.1324 18.5186 85.1088C19.1333 84.9623 18.3337 84.5196 18.3252 84.4643C18.0976 83.1569 19.0054 82.2829 18.8274 80.9622C18.8156 80.8933 17.9891 80.2204 18.8024 80.09C18.8566 80.0809 19.687 79.9588 19.1748 79.6677C19.1428 79.6496 18.7115 79.7371 18.7917 79.4845C18.8718 79.232 18.6603 78.7778 19.1622 78.4966C19.3198 78.4112 20.1536 78.2567 19.5728 77.8238C19.532 77.7949 18.1824 77.0576 19.1959 77.0238C19.3626 77.0188 20.4008 77.2078 19.9266 76.73C19.8345 76.6386 19.5809 76.7403 19.4661 76.519C19.288 76.1853 19.6316 75.8086 19.226 75.3565C19.154 75.2773 18.4902 74.8848 19.0622 74.7431C19.1517 74.7209 19.4893 74.8418 19.5467 74.7292C19.8203 74.1999 19.6819 73.5609 20.0136 73.0229C20.1303 72.8325 20.6762 73.0254 20.8604 72.8377C21.0447 72.6484 21.2559 72.2549 21.0353 71.9865C20.8142 71.721 19.879 71.8228 19.8611 71.4752C19.7821 69.9742 20.5412 68.6307 20.8596 67.194C20.9068 66.9816 20.5569 67.1056 20.6035 66.7892C20.7731 65.6245 20.8162 63.5601 21.6706 62.6711C22.3546 61.9586 22.5935 63.0454 22.9217 62.4676C23.0789 62.1887 22.0956 61.6863 22.0754 61.6087C21.8653 60.8486 22.411 60.4419 22.3806 59.787C22.3742 59.6516 21.9306 59.7053 21.9299 59.5908C21.9234 59.1996 22.1824 58.8307 22.2116 58.4653C22.2238 58.3008 21.897 58.2736 21.9482 58.1291C22.0671 57.7825 22.2584 57.4904 22.6219 57.1945C22.655 57.1675 23.0167 57.4535 23.0788 57.1908C23.1786 56.7632 23.5689 56.2948 23.3503 55.746C23.2841 55.5833 22.5504 55.4464 23.1142 55.2218C23.232 55.175 24.0993 55.4156 23.4025 54.914C23.2866 54.831 22.3678 54.0376 23.0847 53.8548C23.2733 53.8067 24.0316 53.7334 23.9498 53.5366C23.936 53.5094 23.5242 53.5344 23.512 53.3813C23.477 52.8367 23.6124 52.3254 23.5842 51.7732C23.5758 51.6263 23.1298 51.7626 23.1303 51.5459C23.1325 50.9415 23.3629 50.2586 23.5925 49.716C23.6779 49.5167 23.9902 49.7213 24.0297 49.7128C24.6722 49.5771 23.8903 49.2866 23.8578 49.1967C23.6675 48.6363 24.1125 48.3412 24.0955 47.8592C24.0917 47.7272 23.6902 47.7481 23.6604 47.7166C23.3721 47.393 24.0287 47.7136 24.135 47.5604C24.4355 47.129 24.4983 46.602 24.5323 46.1294C24.5445 45.9542 24.0631 46.0672 24.0792 45.9108C24.1675 44.9762 24.381 44.0311 24.7872 43.1803C24.8647 43.019 25.1897 43.1872 25.2746 43.1659C25.868 43.0204 25.1824 42.5254 25.1259 42.4291C24.8662 41.9978 25.1947 41.9165 25.196 41.5798C25.1996 39.9216 25.7533 37.9666 26.1406 36.4931C26.6505 34.5312 27.2437 33.0644 27.4827 31.1785C27.4983 31.059 27.0194 31.0994 27.0269 30.9953C27.1478 29.6394 27.5506 28.3703 27.6476 27.0076C27.6565 26.8952 27.1947 26.9804 27.1943 26.7974C27.1919 26.5452 27.2375 26.2543 27.3291 25.9833C27.3745 25.8475 27.4308 25.7179 27.4977 25.6016C27.5959 25.4293 27.9267 25.7391 28.0179 25.5646C28.231 25.1589 28.3389 24.7122 28.3415 24.2758C28.3416 24.0901 27.8509 24.2865 27.8856 24.0514C28.1086 22.4747 28.3021 20.869 29.1593 19.2982C29.2178 19.1923 30.138 19.2456 30.0046 18.9804C29.7568 18.9204 29.4617 18.8716 29.195 18.8186C29.4485 16.4351 30.1427 14.2141 30.588 11.8453C30.6061 11.7486 30.0979 11.8446 30.1329 11.643C30.3334 10.4861 30.3754 9.41669 31.0445 8.34484C31.1103 8.23771 31.9434 8.43391 31.8715 8.08218C31.8584 8.01762 31.8263 7.52293 31.6692 7.33967C31.6448 7.31672 31.2356 7.34545 31.2526 7.17519C31.3462 6.26203 31.6133 5.22744 32.0336 4.29943C32.1012 4.15643 32.4886 4.39397 32.5401 4.29436C32.7382 3.8666 32.7717 3.51799 32.9286 2.89145C32.9431 2.83452 32.9793 2.70395 33.0143 2.59594C33.0566 2.47063 33.0732 2.4036 33.1947 2.12338C33.2511 1.99827 33.3213 1.85418 33.4313 1.67487C33.5821 1.44767 33.8862 0.911082 34.7187 0.432086C35.1199 0.16416 36.2461 -0.127789 37.005 0.0593576C37.3926 0.130349 37.7431 0.275344 37.9648 0.39388C38.1555 0.494662 38.3093 0.598137 38.4366 0.694641C38.9372 1.08863 39.0795 1.33919 39.1627 1.44519C39.3431 1.70845 39.3628 1.77569 39.3813 1.82174C39.3936 1.86192 39.3762 1.85441 39.3332 1.81672C39.243 1.74685 39.0661 1.51637 38.5611 1.23153C37.8434 0.81248 36.9268 0.902703 36.6861 1.07177C36.3729 1.23592 36.2878 1.4301 36.2702 1.59841C36.2711 1.92679 36.3428 2.30538 36.5082 2.63201C36.5359 2.74158 36.6196 2.68972 36.9464 2.95206C37.7632 3.62593 38.4766 4.55648 39.3493 5.27312C39.5505 5.42979 39.8498 4.65551 40.0044 5.39057C40.0157 5.44474 39.778 6.00694 39.6509 6.36343C39.6015 6.5823 40.1413 6.69552 39.9393 7.08298C39.8509 7.26228 39.5548 7.424 39.1726 7.57597C38.8281 7.70102 38.2119 7.97276 37.2317 8.12869C36.0958 8.24603 35.7035 8.24183 35.06 8.16395C34.467 8.1018 33.3779 7.55887 32.7425 6.73767ZM19.0244 95.9764C19.4656 95.7572 17.9887 95.5188 18.3039 95.8617C18.3209 95.8786 19.0027 95.9878 19.0244 95.9764ZM14.5056 128.706C15.2154 128.468 14.3012 128.059 13.7562 128.224C13.2121 128.388 14.2905 128.778 14.5056 128.706ZM14.3407 132.425C14.9273 132.103 12.852 131.662 13.1939 132.181C13.2132 132.211 14.3067 132.444 14.3407 132.425ZM37.1651 2.37413C37.17 2.38276 37.2908 2.48306 37.3692 2.58152C37.448 2.67854 37.4775 2.73114 37.5127 2.7876C37.5732 2.88985 37.5894 2.91971 37.6013 2.91956C37.8236 2.82851 37.9253 2.74551 37.8408 2.59851C37.7851 2.51247 37.7013 2.40999 37.4388 2.24661C37.3198 2.17859 37.187 2.13878 37.1304 2.15839C37.0698 2.17655 37.1015 2.25088 37.1651 2.37413ZM14.1895 136.123C14.4983 136.034 14.2378 135.627 13.8587 135.713C13.5544 135.778 13.8079 136.221 14.1895 136.123ZM22.5736 82.0685C22.5963 82.0674 22.639 81.9146 22.5139 81.8995C22.1109 81.8511 22.1924 82.0848 22.5736 82.0685ZM13.233 142.369C13.3681 141.379 15.1836 141.102 14.8922 142.003C14.8419 142.172 14.3678 141.585 14.1913 141.789C13.8676 142.193 14.9526 142.5 14.3617 142.892C14.2517 142.977 13.2188 142.434 13.2306 142.367C13.2314 142.368 13.2322 142.369 13.233 142.369ZM20.8258 96.057C20.8462 96.0541 20.894 95.8383 20.8752 95.8306C20.4205 95.6494 20.3239 96.0841 20.8258 96.057ZM24.8793 73.0782C24.9226 73.0738 25.0411 72.5806 25.0058 72.5557C24.2809 72.1716 24.0382 73.1732 24.8793 73.0782ZM19.9327 110.889C20.3723 111.193 20.3882 111.483 19.768 111.585C19.8324 111.357 19.8703 111.122 19.9327 110.889Z" fill="black"/>
<path d="M4.09435 48.1307C5.47465 46.8733 7.50135 45.4918 9.09999 44.5343C9.59996 44.2339 9.52348 44.6222 9.87578 44.4251C10.5643 44.0403 11.0759 43.5006 11.771 43.1435C12.0023 43.0261 11.9933 43.553 12.23 43.4224C13.5249 42.7054 14.5904 41.807 15.8555 41.0207C22.0887 37.1521 28.1816 33.355 34.6159 29.7041C36.7261 28.5061 39.4935 27.3336 41.6015 25.9615C41.8495 25.7997 41.5157 25.5644 41.5499 25.5104C42.0921 24.6745 42.1991 25.467 42.7456 25.2766C44.9339 24.5093 47.1536 23.3616 49.0559 22.2295C49.8532 21.7537 48.6953 21.5215 49.71 21.4674C49.7806 21.4629 49.7462 21.9187 49.9941 21.8402C50.5648 21.6563 51.5181 21.1052 51.9277 20.9403C52.7411 20.6122 52.8742 20.5439 53.6106 20.1982C54.633 19.7231 55.9066 19.3504 56.9974 18.7736C57.2251 18.6516 56.7516 18.4212 57.1003 18.1939C57.4363 17.971 58.4819 17.5621 58.8545 17.5115C59.2298 17.4584 59.2052 17.81 59.2926 17.852C59.993 18.2199 60.8936 16.956 61.0272 16.8848C63.7081 15.498 66.293 15.0789 69.353 14.6406C69.5156 14.62 69.6768 14.6013 69.8366 14.5849C72.192 14.5084 74.1051 13.728 77.134 15.825C79.1825 17.6523 78.4668 20.2736 78.039 21.2534C77.909 21.5794 77.7532 21.9139 77.5918 22.2255C77.4571 22.4818 77.3119 22.7396 77.1564 23.0023C76.8625 23.503 76.4371 24.1553 76.1478 24.5881C76.0096 24.7936 76.5645 24.8222 76.3921 25.0779C74.4188 27.9275 72.2111 30.1411 69.7233 32.1833C69.4785 32.3805 69.473 31.8029 69.2112 31.9819C67.5696 33.1366 64.8521 34.546 65.1737 36.6846C64.1616 37.5108 62.9549 38.4866 61.815 39.0012C61.0876 39.3265 61.3354 38.5116 60.7758 39.2544C60.6503 39.4203 61.1096 39.5447 60.9011 39.7713C60.0229 40.7253 58.842 41.5661 57.9664 42.5724C57.7955 42.7722 58.0777 42.9972 58.0625 43.0934C57.9219 43.8878 56.5737 43.9029 56.359 44.0009C54.7264 44.7595 53.8586 45.7091 52.6089 46.7141C52.317 46.9484 52.9606 47.0374 52.6901 47.2763C51.2746 48.5169 49.7445 49.695 48.1803 50.6714C47.8313 50.8878 47.8724 50.3374 47.6928 50.4245C46.9046 50.8116 47.2268 51.5325 46.4814 51.9118C46.3247 51.9926 46.1861 51.6601 46.1377 51.6499C45.3801 51.4869 45.5681 52.4173 45.4797 52.5108C44.3737 53.7075 43.0187 53.6454 41.8692 54.7002C41.7322 54.8271 42.333 54.9153 41.931 55.2509C39.2567 57.4868 36.2723 59.6272 33.3079 61.4436C32.8485 61.7256 32.9534 61.2314 32.9019 61.2195C32.0802 61.0473 32.3138 61.9381 32.1947 62.0689C31.2523 63.075 29.7816 63.294 29.6446 64.668C24.7827 67.9061 20.4702 71.8378 15.3164 74.5893C15.2521 74.6246 15.1035 74.2119 14.9764 74.2839C13.4741 75.1245 14.1024 75.4658 13.6411 76.8158C13.5218 77.1573 12.2433 76.9231 12.1428 76.9114C11.7656 76.8727 11.6149 76.2035 11.5109 76.2197C10.6818 76.3568 11.9874 77.9519 11.1252 78.6168C11.0961 78.6349 10.9777 78.2471 10.8823 78.2731C10.5852 78.3527 10.4604 78.6398 10.1719 78.6984C9.84107 78.7639 9.48428 78.6287 9.16777 78.6028C8.81553 78.6049 8.49387 78.7237 8.29394 79.2537C8.2516 79.3845 9.09408 80.2054 8.36263 80.7205C8.24876 80.7972 7.78488 81.1698 7.38369 81.495C7.18322 81.6572 6.99806 81.8073 6.8485 81.9244C6.69854 82.0412 6.49145 82.2076 6.40444 82.2614C6.03212 82.5008 5.99483 82.0233 5.96065 82.0323C5.71525 82.1209 5.56449 82.1456 5.43653 82.1559C5.25469 82.223 5.15669 82.2204 5.06685 82.2031C4.89313 82.1662 4.75414 82.0604 4.51725 82.0201L4.51903 81.9683C4.4352 82.0478 4.32444 82.1433 4.30143 82.3621C4.29173 82.691 4.54524 82.838 4.65872 82.8036C4.80176 82.7813 4.87672 82.6303 4.93682 82.4529C5.05344 82.0944 5.10077 81.6089 5.1554 81.5118C5.23224 81.3459 6.12579 81.5808 6.39998 81.6428C6.66498 81.7171 6.4542 82.0251 6.66615 82.0492C8.121 82.1562 6.95095 81.0503 7.27628 80.6527C7.99205 79.7115 9.2392 80.6179 10.1531 80.387C10.4092 80.3202 10.0982 80.1271 10.3069 80.0121C11.1022 79.5719 11.8005 79.7168 12.5842 78.973C12.7264 78.8458 13.1792 77.7955 13.9039 78.1008C14.0092 78.1445 13.9358 78.5316 14.3289 78.4363C14.9624 78.2739 15.8642 77.9448 16.4409 77.5625C16.8356 77.2943 16.1324 77.0289 16.7168 76.9439C16.9774 76.9059 16.6804 77.3855 17.1612 77.2893C17.6332 77.1978 18.804 76.6406 19.1971 76.4448C19.6159 76.2372 19.2131 75.9784 19.2356 75.9378C19.3734 75.7014 20.1305 75.1307 20.21 75.0936C23.8233 73.3382 27.4761 72.3272 30.9331 70.3834C31.1936 70.2367 30.8272 69.9408 30.865 69.9145C31.7105 69.3008 31.4791 70.6784 32.2988 70.6994C31.8231 69.9678 32.2746 69.9211 32.9085 69.5033C33.2145 69.3009 32.8886 69.0874 32.9032 69.042C33.1633 68.3461 33.7998 68.7658 33.9481 68.8428C34.4777 69.1338 34.5502 68.4454 34.9091 68.6372C35.2663 68.8271 34.9941 69.505 35.6235 69.1869C35.664 68.8209 34.8336 68.3275 35.2574 67.9714C36.903 66.6045 40.6078 65.4694 42.0827 64.8045C43.5648 64.1368 44.0314 63.8385 44.9625 63.4966C46.5625 62.9198 45.7384 62.6608 46.566 61.9366C47.4049 61.2063 47.6031 62.7626 47.8845 62.977C48.1643 63.1921 48.1669 62.8244 48.4169 62.8941C48.6664 62.964 48.3934 63.3437 48.8254 63.1995C49.2633 63.0523 50.1018 61.9959 50.0784 61.6352C50.0522 60.8592 49.2371 60.4426 50.3869 60.1529C50.4535 60.1365 50.4354 60.5815 50.6815 60.5012C52.6472 59.8436 54.5723 58.8891 56.5056 58.2044C56.775 58.1091 56.745 58.6097 56.9041 58.5585C58.571 58.0222 57.6909 57.6508 58.1795 56.4931C58.2885 56.8837 58.4626 57.1774 58.6988 57.3624C59.1154 57.6734 59.7359 57.6547 60.4959 57.2728C61.2138 56.9125 60.8747 56.5564 61.1738 56.0319C61.2638 55.8738 61.8898 55.9185 61.8738 55.6781C61.823 54.8916 61.0314 54.3844 62.2854 54.1093C62.3403 54.0986 62.3672 54.5296 62.5437 54.4668C63.8021 54.0038 63.6853 53.2135 64.872 52.5082C65.6772 52.0186 67.9086 51.4048 68.9028 50.9856C69.3544 52.1162 70.4534 51.2486 70.4743 50.3011C70.8621 50.1242 71.1123 49.9941 71.5602 49.7757C71.999 49.5619 72.3788 49.3896 72.7102 49.2875C72.9348 49.2186 72.9566 49.6007 72.9998 49.6214C73.7845 49.8928 73.7486 49.0012 73.8461 48.9169C73.8867 48.875 74.0822 48.7599 74.1774 48.6988C74.2302 48.6657 74.2735 48.6383 74.3087 48.6157C74.3264 48.6044 74.342 48.5944 74.356 48.5853C74.3679 48.5794 74.3259 48.599 74.3915 48.5676C74.4076 48.56 74.4197 48.5542 74.4439 48.5438C74.4588 48.5379 74.4666 48.5327 74.5255 48.5136C74.576 48.5091 74.5478 48.4695 74.8612 48.4824C74.9493 48.4979 75.0863 48.5033 75.2974 48.6745C75.5044 48.832 75.6115 49.1985 75.5709 49.3885C75.4882 49.7809 75.3896 49.7852 75.3508 49.8491C75.2015 49.989 75.2163 49.9571 75.1908 49.9782C75.1745 49.9883 75.1658 49.9932 75.1574 49.9981C75.1412 50.0074 75.1284 50.0144 75.1131 50.0228C75.0981 50.0315 75.102 50.0299 75.0963 50.0335C75.0884 50.0388 75.08 50.0443 75.071 50.0501C75.0003 50.0956 74.8864 50.1598 74.7435 50.2363C74.6646 50.2797 74.5751 50.3262 74.4764 50.3755C74.017 50.606 73.7002 50.7347 73.2596 50.9365C72.492 51.282 71.7165 51.6707 71.0206 52.3584C70.9719 52.4071 71.2581 53.2064 70.5421 52.8777C70.4947 52.854 70.8656 52.239 70.079 52.6007C69.2811 52.9675 67.6376 53.284 66.7046 54.1697C66.5963 54.2743 66.4742 54.5497 66.2186 54.7993C66.1028 54.9183 65.9813 55.0176 65.8543 55.0655C65.6767 55.1367 65.4636 55.1687 65.2904 55.0935C65.2424 55.0735 65.2162 54.9992 65.1832 54.9195C65.1667 54.8796 65.1486 54.8383 65.1263 54.8011C65.1129 54.7833 65.0712 54.777 65.0304 54.7697C64.9669 54.7586 65.0022 54.776 64.7257 54.7505C64.6598 54.7354 64.53 54.7154 64.3949 54.5593C64.255 54.3983 64.2643 54.1627 64.301 54.0736C64.3764 53.8846 64.4263 53.8825 64.4575 53.8504C64.5076 53.8187 64.5024 53.838 64.5219 53.8328C64.551 53.8316 64.5744 53.8307 64.5958 53.827C64.6384 53.82 64.6733 53.8024 64.7085 53.7748C64.7659 53.7274 64.8898 53.6017 64.9113 53.5492C64.9725 53.4327 65.0716 53.3375 65.4485 53.5387C65.633 53.6415 65.8713 53.7012 66.1025 53.7374C66.2869 53.7999 66.4859 53.826 66.7023 53.7994C67.1093 53.7601 67.7386 53.4266 68.0327 52.9821C68.0573 52.9522 67.9623 52.2352 68.309 52.059C68.5783 51.9227 68.9763 51.7521 69.3339 51.6007C69.636 51.4793 69.9565 51.3451 70.2249 51.1981C70.4831 51.0563 70.1185 50.7767 70.16 50.7457C72.0235 49.4769 73.1484 49.2995 75.3823 48.2924C75.7113 48.1517 76.3912 47.1423 77.293 47.1746C78.292 47.2039 78.4325 49.4585 80.0335 48.0536C80.7281 47.463 80.2037 44.7866 82.1056 45.3094C84.5142 43.6546 86.869 43.193 89.1769 41.4337C89.2804 41.3551 89.3016 40.5203 89.5788 40.3852C89.9909 40.186 90.3753 40.3682 90.6804 40.2326C91.8041 39.7558 92.6641 38.9732 93.7838 38.4344C94.209 38.2289 94.2259 38.618 94.7384 38.3702C95.2528 38.1211 95.3757 37.5324 96.184 37.3598C96.7886 37.2343 97.803 37.771 98.5354 37.5104C98.125 36.6702 98.5662 36.4597 99.2435 35.8245C99.3737 35.7019 99.0587 35.5001 99.1125 35.4272C99.3282 35.1243 99.7277 35.2187 99.9258 34.9083C99.9743 34.8332 99.829 34.549 99.8603 34.4717C100.12 33.804 101.259 34.016 101.458 34.053C102.212 34.1924 102.272 33.6921 102.776 33.6385C103.28 33.5846 102.764 34.1196 103.305 33.9635C104.399 33.6535 105.827 32.845 106.752 32.3752C107.134 32.1791 106.676 31.9381 106.726 31.9013C107.462 31.3927 108.486 31.3671 108.541 30.3795C110.125 32.026 108.926 29.9365 110.312 29.7051C110.422 29.6875 111.023 30.5441 110.735 30.867C110.448 31.1897 109.759 31.1853 109.383 31.6511C109.293 31.7614 109.089 32.9669 109.028 33.0654C108.546 33.8386 107.73 32.5155 107.653 32.4596C106.804 31.8675 106.545 33.1867 106.331 33.3811C105.427 34.231 104.448 34.4988 103.71 35.1544C103.228 35.5809 103.648 36.5078 103.204 36.7059C101.739 37.3601 100.598 36.3592 99.8956 38.1174C99.7472 38.4916 100.528 39.3351 99.1601 39.0687C99.0649 39.0565 97.8776 38.779 97.6537 39.4679C97.6254 39.5547 97.778 39.8401 97.7144 39.9042C97.2863 40.3284 96.8296 40.2776 96.3454 40.6722C95.8615 41.0666 95.3072 41.5666 94.6613 41.783C94.2715 41.9143 93.5372 41.6199 93.3007 41.5777C92.6275 41.452 92.4538 42.3317 91.9284 42.0268C91.3838 41.729 91.6468 40.7019 90.6384 40.8558C90.9984 41.6163 91.327 42.4185 91.6699 43.1934C89.7573 44.1689 87.8887 44.8484 86.2525 45.7555C86.0505 45.8685 86.4706 46.1576 86.2602 46.2886C85.2219 46.9189 84.1509 47.1212 83.1878 47.7766C82.4247 48.2952 81.8908 49.1198 81.0836 49.6846C80.0691 49.1339 78.924 50.1118 78.0247 50.4909C77.7077 50.6251 77.6079 50.3872 77.3572 50.4257C76.4248 50.571 77.1951 51.1239 77.0448 51.3555C76.2552 52.4233 75.2225 50.7935 74.0928 51.4511C74.0285 51.4875 73.7977 52.7742 73.7381 52.8786C73.5401 53.2209 73.4611 53.1621 73.3934 53.0273C73.3265 52.8921 73.2638 52.6848 73.0135 52.776C72.1111 53.1029 71.4544 53.1779 70.7938 53.8758C70.6788 54.0389 70.1731 55.0391 69.4787 54.8543C69.3835 54.8324 69.2569 54.5154 69.1961 54.5259C68.1897 54.6976 68.5574 55.7114 68.2078 56.3169C68.0232 56.6257 67.7419 56.6745 67.2935 56.7397C67.1039 56.7528 66.9476 56.7275 66.83 56.6888C66.7381 56.6345 66.5602 56.6423 66.5326 56.5978C66.4228 56.5069 66.4839 56.3625 66.4272 56.343C66.3789 56.319 66.3169 56.3431 66.3593 56.3176C66.5121 56.2265 66.65 56.2233 66.6575 56.1874C66.614 55.8426 66.4696 55.7727 66.3143 55.7952C66.2751 55.7832 66.0641 55.8974 66.0569 55.8954C66.056 55.8937 66.0659 55.8861 66.1083 55.8517C66.1311 55.8329 66.1569 55.8124 66.2126 55.7615C66.2699 55.7064 66.3483 55.6446 66.5011 55.4372C66.5763 55.3282 66.6794 55.1823 66.7815 54.8893C66.8759 54.6092 66.9861 54.0839 66.7503 53.465C66.52 52.8407 65.9699 52.4325 65.6283 52.2974C65.2705 52.148 65.0485 52.138 64.8903 52.1277C64.581 52.1197 64.4743 52.1535 64.3847 52.1688C64.0895 52.2417 64.1668 52.2351 64.1533 52.2365C64.1535 52.2375 64.156 52.2376 64.1602 52.2372C64.1687 52.2363 64.184 52.233 64.2035 52.2284C64.3154 52.4645 64.4297 52.6245 64.5537 52.7077C64.6759 52.7918 64.816 52.7947 64.8633 52.772C64.9873 52.7131 64.9877 52.4386 64.6768 52.0709C64.6428 52.0307 64.5517 52.0722 64.4716 52.1151C64.3323 52.1854 64.239 52.2393 64.2035 52.2284C64.163 51.1302 64.7696 50.692 66.0565 51.1278C66.6255 51.3477 66.4799 52.0048 67.5848 51.2434C68.0676 50.9068 67.5448 50.3637 67.9263 49.9542C68.804 49.0159 70.4627 48.9308 71.5338 48.268C71.8961 48.0408 71.3341 47.8849 71.5984 47.7059C71.9866 47.4484 72.2431 47.3705 72.6691 47.1989C72.8722 47.1181 72.9734 47.088 73.188 46.9823C73.2935 46.9302 73.3726 46.8873 73.3977 46.8663C73.3992 46.8651 73.4004 46.8639 73.4013 46.8629C73.4017 46.8624 73.4021 46.862 73.4024 46.8615C73.3979 46.864 73.3903 46.8677 73.3522 46.8899C73.3313 46.9023 73.3067 46.916 73.2378 46.9608C73.2019 46.9848 73.1564 47.0137 73.0607 47.0872C73.0121 47.1253 72.9472 47.1759 72.8439 47.2739C72.739 47.3858 72.5894 47.4885 72.3168 47.965C72.1947 48.2024 71.9825 48.6208 71.9831 49.3214C71.9536 50.0192 72.4216 51.0178 73.0115 51.4481C74.219 52.285 74.6713 52.0264 74.9413 52.0658C75.452 52.0182 75.4991 51.9668 75.6073 51.9414C75.7695 51.8884 75.7989 51.8722 75.8364 51.8576C75.8978 51.8316 75.9068 51.8268 75.9152 51.8231C75.9097 51.8269 75.9091 51.8284 75.9051 51.8316C75.898 51.8376 75.8884 51.8453 75.8767 51.8545C75.8532 51.8728 75.8215 51.8969 75.7822 51.9269C75.718 51.9745 76.0842 52.2529 75.8266 52.3865C75.6379 52.4837 75.6371 52.4862 75.5301 52.5404C75.4412 52.5857 75.3425 52.6346 75.2342 52.6875C75.0268 52.7885 74.7216 52.9348 74.5823 52.9948C74.2237 53.1549 73.803 53.3349 73.3122 53.5486C72.5752 53.8525 71.6511 54.244 70.7487 54.6969C70.3613 54.8913 69.816 55.2303 69.2048 55.597C68.9 55.78 68.5803 55.969 68.2668 56.1448C68.0061 56.2936 67.7766 56.4164 67.5601 56.5134C66.082 57.1774 63.7209 57.7048 62.581 58.4476C61.7651 58.9669 62.1349 59.2412 61.8846 59.6835C61.5979 60.1886 60.8566 60.3347 60.2281 60.3691C59.8109 60.3816 59.4582 60.3346 59.3583 60.3156C59.35 60.3143 60.0698 59.8392 59.5663 59.858C59.1296 59.5855 59.3661 60.3095 59.3583 60.3156C59.1963 60.2887 57.6503 60.9692 57.3955 61.1867C57.2551 61.3063 57.5212 61.6091 57.4448 61.6648C55.6777 62.9535 53.6263 64.1033 51.5878 64.9276C51.5496 64.9381 51.405 64.5218 51.3176 64.5512C50.0772 64.9596 49.5194 65.8389 48.7103 66.601C47.887 67.3702 47.13 67.6314 46.1843 67.267C45.4786 67.7267 44.284 67.9542 43.6046 68.069C42.9244 68.1843 43.2254 68.9842 43.181 69.0252C41.7361 70.3481 40.5819 70.3794 38.8403 71.1592C37.9702 71.5494 36.4515 72.4382 35.6002 72.9613C34.9138 73.383 34.4016 73.4129 33.8192 73.8408C33.7405 73.8984 33.9944 74.1955 33.9745 74.2215C33.4657 74.9757 33.3993 73.9774 33.1807 73.9005C32.4068 73.6104 31.8957 73.5046 31.0927 74.2113C30.9062 74.3744 30.8731 75.8729 30.5299 76.1264C30.081 76.4546 30.0683 75.9298 29.5708 76.2998C29.5285 76.3308 29.6656 76.5919 29.3262 76.742C27.7869 77.4252 26.0318 78.079 24.4851 78.847C24.2628 78.9559 24.7494 79.2421 24.4326 79.4058C22.978 80.158 21.3693 80.8944 19.8153 81.3704C19.4322 81.4861 19.521 81.0848 19.4024 81.0325C18.6746 80.7207 18.4043 81.7832 18.2724 81.8611C15.7508 83.4519 13.4399 83.6492 10.6616 85.1288C10.5441 85.2002 9.57012 86.5428 8.69343 85.9963C8.66744 85.9771 8.44438 85.8257 8.16149 85.7677C7.88411 85.7077 7.59502 85.7271 7.33647 86.0774C7.30157 86.12 7.86519 86.41 7.0571 86.5631C6.6516 86.6287 6.26747 86.7789 5.33608 86.8373C5.0946 86.8467 4.8429 86.8519 4.43409 86.8049C4.23286 86.7796 4.06719 86.7539 3.79333 86.6867C3.51611 86.6172 3.21864 86.5179 2.9141 86.3769C2.23797 86.0798 1.40831 85.4341 0.921742 84.6637C0.429739 83.9027 0.298983 83.2677 0.246286 82.9494L8.58307e-06 81.7028L0.322022 80.7476C0.840656 79.4151 1.21334 79.2872 1.52799 78.9882C1.8909 78.6865 2.19446 78.726 2.54494 78.5817C2.71729 78.514 2.89009 78.4161 3.04763 78.259C3.12641 78.1805 3.20144 78.0871 3.2708 77.9752C3.31985 77.881 3.34361 77.7847 3.36513 77.6612C3.33696 77.6213 3.44271 75.6513 4.43183 76.1389C4.59121 76.2219 5.17464 77.1028 5.55679 76.107C5.633 75.9128 5.22735 75.9339 5.51311 75.5202C6.00088 74.846 6.8607 74.5347 7.28231 73.6161C7.34661 73.4612 7.47264 72.4607 8.21707 72.5755C8.33023 72.5961 8.4272 72.9653 8.65874 72.8378C9.73882 72.2496 10.827 71.1289 11.9498 70.5862C12.3704 70.3758 12.5236 70.9735 13.0046 70.8016C13.4781 70.6353 14.4027 70.1224 14.6379 69.6199C14.8765 69.1146 13.8971 68.7161 14.4499 68.2093C16.9335 65.947 19.8974 64.3898 22.5578 62.4835C22.9602 62.195 22.436 62.1835 23.0173 61.7377C25.129 60.1178 28.6067 57.1014 30.8709 56.239C32.6878 55.5467 31.0829 57.302 32.3456 56.6203C32.9492 56.2939 32.8926 55.0083 33.0027 54.8819C34.0698 53.6384 35.2563 53.3144 36.3053 52.3219C36.523 52.1159 36.03 51.9567 36.2181 51.7851C36.8583 51.1959 37.6964 50.7867 38.3302 50.2487C38.6139 50.0065 38.359 49.7912 38.6448 49.6002C39.3257 49.1405 39.9802 48.8025 40.7972 48.55C40.8717 48.527 40.7365 49.1497 41.2226 48.7871C42.0098 48.1982 43.146 47.6861 43.8413 46.7356C44.046 46.4531 43.592 45.861 44.4762 45.8156C44.6611 45.8057 45.0703 46.6262 45.2417 45.4982C45.2726 45.3092 45.7128 43.6184 46.6661 43.7139C46.9189 43.7378 47.7454 44.0131 47.9872 43.6691C48.0182 43.6203 47.5954 43.4468 47.8309 43.2058C48.6647 42.3619 49.6414 41.6199 50.4785 40.768C50.7078 40.5346 50.0701 40.5225 50.42 40.185C51.382 39.2562 52.7072 38.2885 53.7527 37.5749C54.1475 37.3049 54.1182 37.7796 54.1683 37.7862C54.9928 37.8856 54.7137 37.0449 54.8237 36.8885C55.5144 35.9236 56.4194 35.6533 57.1288 34.9011C57.3246 34.6947 56.916 34.5314 56.9356 34.468C57.1661 33.8144 57.2895 34.6398 57.6308 34.4444C58.5904 33.8966 59.4537 33.0885 60.1933 32.3537C60.4642 32.0836 59.8418 32.0342 60.0873 31.7963C61.6248 30.2993 63.1573 28.9251 64.7843 27.6718C65.0818 27.4452 65.1618 27.8576 65.2729 27.8599C66.0511 27.8762 66.0307 26.8127 66.1266 26.6103C66.4841 25.7694 66.9246 25.7546 67.3652 25.1999C68.4195 23.8593 69.6933 22.3726 70.6883 21.0065C70.9078 20.7077 71.167 20.3328 71.36 20.0287C71.5601 19.7114 71.6842 19.5061 71.8147 19.2469C71.931 19.0184 71.9702 18.8971 71.9802 18.9343C71.9919 18.9834 71.9581 19.2899 72.1515 19.785C72.2853 20.1329 72.5483 20.488 72.7856 20.6856C72.989 20.8573 73.1467 20.9236 73.2136 20.9406C73.329 20.9582 73.1493 20.8551 72.8588 20.7942C72.1435 20.658 71.4854 20.6127 70.3999 20.6601C69.1704 20.6953 67.4963 21.0806 65.7785 21.692C65.5387 21.7772 65.9292 22.137 65.7249 22.2163C63.0588 23.2377 60.3399 24.1972 57.6788 25.5709C57.4602 25.6833 57.9666 25.9344 57.6221 26.1286C56.8979 26.5388 56.0073 26.9371 55.1885 27.1802C54.8007 27.2941 55.1115 26.7212 54.7286 26.8411C53.8428 27.1168 52.8943 27.557 52.084 28.051C51.7329 28.2657 52.4894 28.3846 52.0172 28.6326C48.8003 30.3367 45.6964 32.1333 42.1945 33.483C41.953 33.5764 41.3044 32.8929 40.9251 33.3176C41.0181 33.5577 41.1708 33.8149 41.2925 34.0586C36.7502 36.8816 32.0953 39.4143 27.5864 42.3417C27.397 42.4648 27.9905 42.6538 27.6256 42.8943C25.5083 44.292 23.5592 45.7847 21.1604 46.8803C20.9228 46.9899 20.539 46.2147 19.9926 46.759C19.8964 46.8552 19.0296 47.6113 18.8979 47.9346C18.8816 47.9806 19.2829 48.1835 18.9908 48.4071C17.2887 49.702 15.4327 50.9539 13.5853 52.0448C13.2861 52.2208 13.323 51.6606 13.1075 51.7833C11.5805 52.6558 10.2787 54.0722 8.73912 54.8013C7.70253 55.2934 7.56957 54.4621 6.65244 54.2707C6.52253 54.2439 5.97196 54.6665 5.68005 54.3624C4.94339 53.5989 4.48031 52.4855 3.66433 51.6965C3.48843 51.5262 2.91936 52.3241 2.98449 51.5164C2.9898 51.4612 3.40173 50.8783 3.40991 50.6169C3.41598 50.4356 2.98184 50.2361 3.06016 49.9475C3.13897 49.6587 3.57029 49.7722 3.75582 49.3601C3.93986 48.9464 3.50029 48.6735 4.09435 48.1307ZM40.4868 68.6203C39.7482 68.532 40.3329 69.9114 40.7752 69.2916C40.7959 69.2599 40.5246 68.6239 40.4868 68.6203ZM87.4124 43.8246C86.4048 43.611 86.397 44.7121 87.1165 44.908C87.8385 45.102 87.72 43.8882 87.4124 43.8246ZM94.6226 39.4764C93.5447 39.4565 94.4039 41.4008 95.0964 40.5513C95.1373 40.5024 94.6858 39.4772 94.6226 39.4764ZM8.69504 52.3905C8.67595 52.3801 8.27071 52.6732 8.27363 52.6961C8.35817 53.2334 9.16644 52.6483 8.69504 52.3905ZM101.773 35.1198C101.377 35.0041 100.788 35.6881 101.275 35.835C101.666 35.9538 102.265 35.2645 101.773 35.1198ZM10.4513 81.0538C10.4321 81.0377 10.0952 81.1517 10.1498 81.2653C10.3194 81.6349 10.744 81.3398 10.4513 81.0538ZM114.43 28.4439C112.447 29.3941 110.495 28.4406 112.667 27.5238C113.063 27.3564 112.11 28.4472 112.665 28.3339C113.681 28.1255 113.764 26.8398 114.964 26.8758C115.181 26.8839 114.543 28.394 114.427 28.4479C114.428 28.4465 114.429 28.4452 114.43 28.4439ZM39.3658 67.1719C39.3454 67.16 38.8942 67.3636 38.8929 67.3861C38.8645 67.9305 39.7735 67.5207 39.3658 67.1719ZM16.1454 73.4518C16.1934 73.4683 17.1716 72.7811 17.1609 72.7406C17.1833 71.7519 15.2403 73.1123 16.1454 73.4518ZM68.9333 51.0064C69.1516 50.3604 69.8488 49.9446 70.4718 50.3017C70.008 50.5005 69.3764 50.815 68.9333 51.0064Z" fill="black"/>
</svg>
